<mxfile host="app.diagrams.net" agent="Mozilla/5.0 (Macintosh; Intel Mac OS X 10_15_7) AppleWebKit/537.36 (KHTML, like Gecko) Chrome/129.0.0.0 Safari/537.36" version="24.7.17" pages="2">
  <diagram id="C5RBs43oDa-KdzZeNtuy" name="ECS">
    <mxGraphModel dx="1313" dy="2279" grid="1" gridSize="10" guides="1" tooltips="1" connect="1" arrows="1" fold="1" page="1" pageScale="1" pageWidth="827" pageHeight="1169" math="0" shadow="0">
      <root>
        <mxCell id="WIyWlLk6GJQsqaUBKTNV-0" />
        <mxCell id="WIyWlLk6GJQsqaUBKTNV-1" parent="WIyWlLk6GJQsqaUBKTNV-0" />
        <mxCell id="zkfFHV4jXpPFQw0GAbJ--0" value="Player" style="swimlane;fontStyle=2;align=center;verticalAlign=top;childLayout=stackLayout;horizontal=1;startSize=26;horizontalStack=0;resizeParent=1;resizeLast=0;collapsible=1;marginBottom=0;rounded=0;shadow=0;strokeWidth=1;" parent="WIyWlLk6GJQsqaUBKTNV-1" vertex="1">
          <mxGeometry y="980" width="110" height="150" as="geometry">
            <mxRectangle x="230" y="140" width="160" height="26" as="alternateBounds" />
          </mxGeometry>
        </mxCell>
        <mxCell id="zkfFHV4jXpPFQw0GAbJ--1" value="ID" style="text;align=left;verticalAlign=top;spacingLeft=4;spacingRight=4;overflow=hidden;rotatable=0;points=[[0,0.5],[1,0.5]];portConstraint=eastwest;" parent="zkfFHV4jXpPFQw0GAbJ--0" vertex="1">
          <mxGeometry y="26" width="110" height="26" as="geometry" />
        </mxCell>
        <mxCell id="zkfFHV4jXpPFQw0GAbJ--4" value="" style="line;html=1;strokeWidth=1;align=left;verticalAlign=middle;spacingTop=-1;spacingLeft=3;spacingRight=3;rotatable=0;labelPosition=right;points=[];portConstraint=eastwest;" parent="zkfFHV4jXpPFQw0GAbJ--0" vertex="1">
          <mxGeometry y="52" width="110" height="8" as="geometry" />
        </mxCell>
        <mxCell id="dg80_g732n-SiZ8jKzdE-0" value="Boos 1" style="swimlane;fontStyle=2;align=center;verticalAlign=top;childLayout=stackLayout;horizontal=1;startSize=26;horizontalStack=0;resizeParent=1;resizeLast=0;collapsible=1;marginBottom=0;rounded=0;shadow=0;strokeWidth=1;" parent="WIyWlLk6GJQsqaUBKTNV-1" vertex="1">
          <mxGeometry x="120" y="980" width="110" height="150" as="geometry">
            <mxRectangle x="230" y="140" width="160" height="26" as="alternateBounds" />
          </mxGeometry>
        </mxCell>
        <mxCell id="dg80_g732n-SiZ8jKzdE-1" value="ID" style="text;align=left;verticalAlign=top;spacingLeft=4;spacingRight=4;overflow=hidden;rotatable=0;points=[[0,0.5],[1,0.5]];portConstraint=eastwest;" parent="dg80_g732n-SiZ8jKzdE-0" vertex="1">
          <mxGeometry y="26" width="110" height="26" as="geometry" />
        </mxCell>
        <mxCell id="dg80_g732n-SiZ8jKzdE-2" value="" style="line;html=1;strokeWidth=1;align=left;verticalAlign=middle;spacingTop=-1;spacingLeft=3;spacingRight=3;rotatable=0;labelPosition=right;points=[];portConstraint=eastwest;" parent="dg80_g732n-SiZ8jKzdE-0" vertex="1">
          <mxGeometry y="52" width="110" height="8" as="geometry" />
        </mxCell>
        <mxCell id="dg80_g732n-SiZ8jKzdE-3" value="Boss 2" style="swimlane;fontStyle=2;align=center;verticalAlign=top;childLayout=stackLayout;horizontal=1;startSize=26;horizontalStack=0;resizeParent=1;resizeLast=0;collapsible=1;marginBottom=0;rounded=0;shadow=0;strokeWidth=1;" parent="WIyWlLk6GJQsqaUBKTNV-1" vertex="1">
          <mxGeometry x="240" y="980" width="110" height="150" as="geometry">
            <mxRectangle x="230" y="140" width="160" height="26" as="alternateBounds" />
          </mxGeometry>
        </mxCell>
        <mxCell id="dg80_g732n-SiZ8jKzdE-4" value="ID" style="text;align=left;verticalAlign=top;spacingLeft=4;spacingRight=4;overflow=hidden;rotatable=0;points=[[0,0.5],[1,0.5]];portConstraint=eastwest;" parent="dg80_g732n-SiZ8jKzdE-3" vertex="1">
          <mxGeometry y="26" width="110" height="26" as="geometry" />
        </mxCell>
        <mxCell id="dg80_g732n-SiZ8jKzdE-5" value="" style="line;html=1;strokeWidth=1;align=left;verticalAlign=middle;spacingTop=-1;spacingLeft=3;spacingRight=3;rotatable=0;labelPosition=right;points=[];portConstraint=eastwest;" parent="dg80_g732n-SiZ8jKzdE-3" vertex="1">
          <mxGeometry y="52" width="110" height="8" as="geometry" />
        </mxCell>
        <mxCell id="dg80_g732n-SiZ8jKzdE-6" value="Boss 3" style="swimlane;fontStyle=2;align=center;verticalAlign=top;childLayout=stackLayout;horizontal=1;startSize=26;horizontalStack=0;resizeParent=1;resizeLast=0;collapsible=1;marginBottom=0;rounded=0;shadow=0;strokeWidth=1;" parent="WIyWlLk6GJQsqaUBKTNV-1" vertex="1">
          <mxGeometry x="360" y="980" width="110" height="150" as="geometry">
            <mxRectangle x="230" y="140" width="160" height="26" as="alternateBounds" />
          </mxGeometry>
        </mxCell>
        <mxCell id="dg80_g732n-SiZ8jKzdE-7" value="ID" style="text;align=left;verticalAlign=top;spacingLeft=4;spacingRight=4;overflow=hidden;rotatable=0;points=[[0,0.5],[1,0.5]];portConstraint=eastwest;" parent="dg80_g732n-SiZ8jKzdE-6" vertex="1">
          <mxGeometry y="26" width="110" height="26" as="geometry" />
        </mxCell>
        <mxCell id="dg80_g732n-SiZ8jKzdE-8" value="" style="line;html=1;strokeWidth=1;align=left;verticalAlign=middle;spacingTop=-1;spacingLeft=3;spacingRight=3;rotatable=0;labelPosition=right;points=[];portConstraint=eastwest;" parent="dg80_g732n-SiZ8jKzdE-6" vertex="1">
          <mxGeometry y="52" width="110" height="8" as="geometry" />
        </mxCell>
        <mxCell id="dg80_g732n-SiZ8jKzdE-9" value="Parralax" style="swimlane;fontStyle=2;align=center;verticalAlign=top;childLayout=stackLayout;horizontal=1;startSize=26;horizontalStack=0;resizeParent=1;resizeLast=0;collapsible=1;marginBottom=0;rounded=0;shadow=0;strokeWidth=1;" parent="WIyWlLk6GJQsqaUBKTNV-1" vertex="1">
          <mxGeometry x="480" y="980" width="110" height="150" as="geometry">
            <mxRectangle x="230" y="140" width="160" height="26" as="alternateBounds" />
          </mxGeometry>
        </mxCell>
        <mxCell id="dg80_g732n-SiZ8jKzdE-10" value="ID" style="text;align=left;verticalAlign=top;spacingLeft=4;spacingRight=4;overflow=hidden;rotatable=0;points=[[0,0.5],[1,0.5]];portConstraint=eastwest;" parent="dg80_g732n-SiZ8jKzdE-9" vertex="1">
          <mxGeometry y="26" width="110" height="26" as="geometry" />
        </mxCell>
        <mxCell id="dg80_g732n-SiZ8jKzdE-11" value="" style="line;html=1;strokeWidth=1;align=left;verticalAlign=middle;spacingTop=-1;spacingLeft=3;spacingRight=3;rotatable=0;labelPosition=right;points=[];portConstraint=eastwest;" parent="dg80_g732n-SiZ8jKzdE-9" vertex="1">
          <mxGeometry y="52" width="110" height="8" as="geometry" />
        </mxCell>
        <mxCell id="dg80_g732n-SiZ8jKzdE-12" value="Wall" style="swimlane;fontStyle=2;align=center;verticalAlign=top;childLayout=stackLayout;horizontal=1;startSize=26;horizontalStack=0;resizeParent=1;resizeLast=0;collapsible=1;marginBottom=0;rounded=0;shadow=0;strokeWidth=1;" parent="WIyWlLk6GJQsqaUBKTNV-1" vertex="1">
          <mxGeometry x="600" y="980" width="110" height="150" as="geometry">
            <mxRectangle x="230" y="140" width="160" height="26" as="alternateBounds" />
          </mxGeometry>
        </mxCell>
        <mxCell id="dg80_g732n-SiZ8jKzdE-13" value="ID" style="text;align=left;verticalAlign=top;spacingLeft=4;spacingRight=4;overflow=hidden;rotatable=0;points=[[0,0.5],[1,0.5]];portConstraint=eastwest;" parent="dg80_g732n-SiZ8jKzdE-12" vertex="1">
          <mxGeometry y="26" width="110" height="26" as="geometry" />
        </mxCell>
        <mxCell id="dg80_g732n-SiZ8jKzdE-14" value="" style="line;html=1;strokeWidth=1;align=left;verticalAlign=middle;spacingTop=-1;spacingLeft=3;spacingRight=3;rotatable=0;labelPosition=right;points=[];portConstraint=eastwest;" parent="dg80_g732n-SiZ8jKzdE-12" vertex="1">
          <mxGeometry y="52" width="110" height="8" as="geometry" />
        </mxCell>
        <mxCell id="dg80_g732n-SiZ8jKzdE-15" value="Missile" style="swimlane;fontStyle=2;align=center;verticalAlign=top;childLayout=stackLayout;horizontal=1;startSize=26;horizontalStack=0;resizeParent=1;resizeLast=0;collapsible=1;marginBottom=0;rounded=0;shadow=0;strokeWidth=1;" parent="WIyWlLk6GJQsqaUBKTNV-1" vertex="1">
          <mxGeometry x="717" y="980" width="110" height="150" as="geometry">
            <mxRectangle x="230" y="140" width="160" height="26" as="alternateBounds" />
          </mxGeometry>
        </mxCell>
        <mxCell id="dg80_g732n-SiZ8jKzdE-16" value="ID" style="text;align=left;verticalAlign=top;spacingLeft=4;spacingRight=4;overflow=hidden;rotatable=0;points=[[0,0.5],[1,0.5]];portConstraint=eastwest;" parent="dg80_g732n-SiZ8jKzdE-15" vertex="1">
          <mxGeometry y="26" width="110" height="26" as="geometry" />
        </mxCell>
        <mxCell id="dg80_g732n-SiZ8jKzdE-17" value="" style="line;html=1;strokeWidth=1;align=left;verticalAlign=middle;spacingTop=-1;spacingLeft=3;spacingRight=3;rotatable=0;labelPosition=right;points=[];portConstraint=eastwest;" parent="dg80_g732n-SiZ8jKzdE-15" vertex="1">
          <mxGeometry y="52" width="110" height="8" as="geometry" />
        </mxCell>
        <mxCell id="dg80_g732n-SiZ8jKzdE-18" value="Bouton" style="swimlane;fontStyle=2;align=center;verticalAlign=top;childLayout=stackLayout;horizontal=1;startSize=26;horizontalStack=0;resizeParent=1;resizeLast=0;collapsible=1;marginBottom=0;rounded=0;shadow=0;strokeWidth=1;" parent="WIyWlLk6GJQsqaUBKTNV-1" vertex="1">
          <mxGeometry y="820" width="110" height="150" as="geometry">
            <mxRectangle x="230" y="140" width="160" height="26" as="alternateBounds" />
          </mxGeometry>
        </mxCell>
        <mxCell id="dg80_g732n-SiZ8jKzdE-19" value="ID" style="text;align=left;verticalAlign=top;spacingLeft=4;spacingRight=4;overflow=hidden;rotatable=0;points=[[0,0.5],[1,0.5]];portConstraint=eastwest;" parent="dg80_g732n-SiZ8jKzdE-18" vertex="1">
          <mxGeometry y="26" width="110" height="26" as="geometry" />
        </mxCell>
        <mxCell id="dg80_g732n-SiZ8jKzdE-20" value="" style="line;html=1;strokeWidth=1;align=left;verticalAlign=middle;spacingTop=-1;spacingLeft=3;spacingRight=3;rotatable=0;labelPosition=right;points=[];portConstraint=eastwest;" parent="dg80_g732n-SiZ8jKzdE-18" vertex="1">
          <mxGeometry y="52" width="110" height="8" as="geometry" />
        </mxCell>
        <mxCell id="dg80_g732n-SiZ8jKzdE-27" value="Text" style="swimlane;fontStyle=2;align=center;verticalAlign=top;childLayout=stackLayout;horizontal=1;startSize=26;horizontalStack=0;resizeParent=1;resizeLast=0;collapsible=1;marginBottom=0;rounded=0;shadow=0;strokeWidth=1;" parent="WIyWlLk6GJQsqaUBKTNV-1" vertex="1">
          <mxGeometry x="150" y="820" width="110" height="150" as="geometry">
            <mxRectangle x="230" y="140" width="160" height="26" as="alternateBounds" />
          </mxGeometry>
        </mxCell>
        <mxCell id="dg80_g732n-SiZ8jKzdE-28" value="ID" style="text;align=left;verticalAlign=top;spacingLeft=4;spacingRight=4;overflow=hidden;rotatable=0;points=[[0,0.5],[1,0.5]];portConstraint=eastwest;" parent="dg80_g732n-SiZ8jKzdE-27" vertex="1">
          <mxGeometry y="26" width="110" height="26" as="geometry" />
        </mxCell>
        <mxCell id="dg80_g732n-SiZ8jKzdE-29" value="" style="line;html=1;strokeWidth=1;align=left;verticalAlign=middle;spacingTop=-1;spacingLeft=3;spacingRight=3;rotatable=0;labelPosition=right;points=[];portConstraint=eastwest;" parent="dg80_g732n-SiZ8jKzdE-27" vertex="1">
          <mxGeometry y="52" width="110" height="8" as="geometry" />
        </mxCell>
        <mxCell id="dg80_g732n-SiZ8jKzdE-33" value="Component Text" style="swimlane;fontStyle=2;align=center;verticalAlign=top;childLayout=stackLayout;horizontal=1;startSize=26;horizontalStack=0;resizeParent=1;resizeLast=0;collapsible=1;marginBottom=0;rounded=0;shadow=0;strokeWidth=1;" parent="WIyWlLk6GJQsqaUBKTNV-1" vertex="1">
          <mxGeometry x="600" y="-170" width="190" height="260" as="geometry">
            <mxRectangle x="230" y="140" width="160" height="26" as="alternateBounds" />
          </mxGeometry>
        </mxCell>
        <mxCell id="dg80_g732n-SiZ8jKzdE-34" value="- _Text : std::string" style="text;align=left;verticalAlign=top;spacingLeft=4;spacingRight=4;overflow=hidden;rotatable=0;points=[[0,0.5],[1,0.5]];portConstraint=eastwest;" parent="dg80_g732n-SiZ8jKzdE-33" vertex="1">
          <mxGeometry y="26" width="190" height="26" as="geometry" />
        </mxCell>
        <mxCell id="dg80_g732n-SiZ8jKzdE-35" value="" style="line;html=1;strokeWidth=1;align=left;verticalAlign=middle;spacingTop=-1;spacingLeft=3;spacingRight=3;rotatable=0;labelPosition=right;points=[];portConstraint=eastwest;" parent="dg80_g732n-SiZ8jKzdE-33" vertex="1">
          <mxGeometry y="52" width="190" height="8" as="geometry" />
        </mxCell>
        <mxCell id="RfQQwh8-WgGAOcPRMrEU-35" value="+ getText(void) : std::string" style="text;align=left;verticalAlign=top;spacingLeft=4;spacingRight=4;overflow=hidden;rotatable=0;points=[[0,0.5],[1,0.5]];portConstraint=eastwest;" parent="dg80_g732n-SiZ8jKzdE-33" vertex="1">
          <mxGeometry y="60" width="190" height="26" as="geometry" />
        </mxCell>
        <mxCell id="RfQQwh8-WgGAOcPRMrEU-36" value="+ setText(Text : std::string) : void" style="text;align=left;verticalAlign=top;spacingLeft=4;spacingRight=4;overflow=hidden;rotatable=0;points=[[0,0.5],[1,0.5]];portConstraint=eastwest;" parent="dg80_g732n-SiZ8jKzdE-33" vertex="1">
          <mxGeometry y="86" width="190" height="26" as="geometry" />
        </mxCell>
        <mxCell id="dg80_g732n-SiZ8jKzdE-45" value="Component Projectile" style="swimlane;fontStyle=2;align=center;verticalAlign=top;childLayout=stackLayout;horizontal=1;startSize=26;horizontalStack=0;resizeParent=1;resizeLast=0;collapsible=1;marginBottom=0;rounded=0;shadow=0;strokeWidth=1;" parent="WIyWlLk6GJQsqaUBKTNV-1" vertex="1">
          <mxGeometry x="260" y="225" width="250" height="275" as="geometry">
            <mxRectangle x="230" y="140" width="160" height="26" as="alternateBounds" />
          </mxGeometry>
        </mxCell>
        <mxCell id="dg80_g732n-SiZ8jKzdE-47" value="" style="line;html=1;strokeWidth=1;align=left;verticalAlign=middle;spacingTop=-1;spacingLeft=3;spacingRight=3;rotatable=0;labelPosition=right;points=[];portConstraint=eastwest;" parent="dg80_g732n-SiZ8jKzdE-45" vertex="1">
          <mxGeometry y="26" width="250" height="8" as="geometry" />
        </mxCell>
        <mxCell id="5C8Mgu6dD55lEWtMiVsK-0" value="+ Projectile : Constructor" style="text;align=left;verticalAlign=top;spacingLeft=4;spacingRight=4;overflow=hidden;rotatable=0;points=[[0,0.5],[1,0.5]];portConstraint=eastwest;" parent="dg80_g732n-SiZ8jKzdE-45" vertex="1">
          <mxGeometry y="34" width="250" height="26" as="geometry" />
        </mxCell>
        <mxCell id="5C8Mgu6dD55lEWtMiVsK-1" value="+ ~Projectile : Destructor" style="text;align=left;verticalAlign=top;spacingLeft=4;spacingRight=4;overflow=hidden;rotatable=0;points=[[0,0.5],[1,0.5]];portConstraint=eastwest;" parent="dg80_g732n-SiZ8jKzdE-45" vertex="1">
          <mxGeometry y="60" width="250" height="26" as="geometry" />
        </mxCell>
        <mxCell id="dg80_g732n-SiZ8jKzdE-51" value="Component Velocity" style="swimlane;fontStyle=2;align=center;verticalAlign=top;childLayout=stackLayout;horizontal=1;startSize=26;horizontalStack=0;resizeParent=1;resizeLast=0;collapsible=1;marginBottom=0;rounded=0;shadow=0;strokeWidth=1;" parent="WIyWlLk6GJQsqaUBKTNV-1" vertex="1">
          <mxGeometry x="260" y="-180" width="290" height="380" as="geometry">
            <mxRectangle x="230" y="140" width="160" height="26" as="alternateBounds" />
          </mxGeometry>
        </mxCell>
        <mxCell id="dg80_g732n-SiZ8jKzdE-52" value="- _x : float" style="text;align=left;verticalAlign=top;spacingLeft=4;spacingRight=4;overflow=hidden;rotatable=0;points=[[0,0.5],[1,0.5]];portConstraint=eastwest;" parent="dg80_g732n-SiZ8jKzdE-51" vertex="1">
          <mxGeometry y="26" width="290" height="26" as="geometry" />
        </mxCell>
        <mxCell id="5C8Mgu6dD55lEWtMiVsK-40" value="- _y : float" style="text;align=left;verticalAlign=top;spacingLeft=4;spacingRight=4;overflow=hidden;rotatable=0;points=[[0,0.5],[1,0.5]];portConstraint=eastwest;" parent="dg80_g732n-SiZ8jKzdE-51" vertex="1">
          <mxGeometry y="52" width="290" height="26" as="geometry" />
        </mxCell>
        <mxCell id="dg80_g732n-SiZ8jKzdE-53" value="" style="line;html=1;strokeWidth=1;align=left;verticalAlign=middle;spacingTop=-1;spacingLeft=3;spacingRight=3;rotatable=0;labelPosition=right;points=[];portConstraint=eastwest;" parent="dg80_g732n-SiZ8jKzdE-51" vertex="1">
          <mxGeometry y="78" width="290" height="8" as="geometry" />
        </mxCell>
        <mxCell id="5C8Mgu6dD55lEWtMiVsK-43" value="+ Velocity(x, y : float, float) : constructor" style="text;align=left;verticalAlign=top;spacingLeft=4;spacingRight=4;overflow=hidden;rotatable=0;points=[[0,0.5],[1,0.5]];portConstraint=eastwest;" parent="dg80_g732n-SiZ8jKzdE-51" vertex="1">
          <mxGeometry y="86" width="290" height="26" as="geometry" />
        </mxCell>
        <mxCell id="5C8Mgu6dD55lEWtMiVsK-44" value="+ Velocity(vel : std::pair&lt;float, float&gt;) : constructor" style="text;align=left;verticalAlign=top;spacingLeft=4;spacingRight=4;overflow=hidden;rotatable=0;points=[[0,0.5],[1,0.5]];portConstraint=eastwest;" parent="dg80_g732n-SiZ8jKzdE-51" vertex="1">
          <mxGeometry y="112" width="290" height="26" as="geometry" />
        </mxCell>
        <mxCell id="5C8Mgu6dD55lEWtMiVsK-45" value="+ ~Velocity : Destructor" style="text;align=left;verticalAlign=top;spacingLeft=4;spacingRight=4;overflow=hidden;rotatable=0;points=[[0,0.5],[1,0.5]];portConstraint=eastwest;" parent="dg80_g732n-SiZ8jKzdE-51" vertex="1">
          <mxGeometry y="138" width="290" height="26" as="geometry" />
        </mxCell>
        <mxCell id="RfQQwh8-WgGAOcPRMrEU-28" value="+ getX(void) : float" style="text;align=left;verticalAlign=top;spacingLeft=4;spacingRight=4;overflow=hidden;rotatable=0;points=[[0,0.5],[1,0.5]];portConstraint=eastwest;" parent="dg80_g732n-SiZ8jKzdE-51" vertex="1">
          <mxGeometry y="164" width="290" height="26" as="geometry" />
        </mxCell>
        <mxCell id="5C8Mgu6dD55lEWtMiVsK-41" value="+ getY(void) : float" style="text;align=left;verticalAlign=top;spacingLeft=4;spacingRight=4;overflow=hidden;rotatable=0;points=[[0,0.5],[1,0.5]];portConstraint=eastwest;" parent="dg80_g732n-SiZ8jKzdE-51" vertex="1">
          <mxGeometry y="190" width="290" height="26" as="geometry" />
        </mxCell>
        <mxCell id="5C8Mgu6dD55lEWtMiVsK-42" value="+ getVelPair(void) : std::pair&lt;float, float&gt;" style="text;align=left;verticalAlign=top;spacingLeft=4;spacingRight=4;overflow=hidden;rotatable=0;points=[[0,0.5],[1,0.5]];portConstraint=eastwest;" parent="dg80_g732n-SiZ8jKzdE-51" vertex="1">
          <mxGeometry y="216" width="290" height="26" as="geometry" />
        </mxCell>
        <mxCell id="RfQQwh8-WgGAOcPRMrEU-29" value="+ setVelPair(vel : std::pair&lt;float, float&gt;) : void" style="text;align=left;verticalAlign=top;spacingLeft=4;spacingRight=4;overflow=hidden;rotatable=0;points=[[0,0.5],[1,0.5]];portConstraint=eastwest;" parent="dg80_g732n-SiZ8jKzdE-51" vertex="1">
          <mxGeometry y="242" width="290" height="26" as="geometry" />
        </mxCell>
        <mxCell id="dg80_g732n-SiZ8jKzdE-54" value="Component Input" style="swimlane;fontStyle=2;align=center;verticalAlign=top;childLayout=stackLayout;horizontal=1;startSize=26;horizontalStack=0;resizeParent=1;resizeLast=0;collapsible=1;marginBottom=0;rounded=0;shadow=0;strokeWidth=1;" parent="WIyWlLk6GJQsqaUBKTNV-1" vertex="1">
          <mxGeometry x="840" y="500" width="280" height="270" as="geometry">
            <mxRectangle x="230" y="140" width="160" height="26" as="alternateBounds" />
          </mxGeometry>
        </mxCell>
        <mxCell id="3WMSXZxI-maQ4MXHyPjK-12" value="- _lastInputs : std::vector&lt;std::size_t&gt;" style="text;align=left;verticalAlign=top;spacingLeft=4;spacingRight=4;overflow=hidden;rotatable=0;points=[[0,0.5],[1,0.5]];portConstraint=eastwest;" parent="dg80_g732n-SiZ8jKzdE-54" vertex="1">
          <mxGeometry y="26" width="280" height="26" as="geometry" />
        </mxCell>
        <mxCell id="dg80_g732n-SiZ8jKzdE-56" value="" style="line;html=1;strokeWidth=1;align=left;verticalAlign=middle;spacingTop=-1;spacingLeft=3;spacingRight=3;rotatable=0;labelPosition=right;points=[];portConstraint=eastwest;" parent="dg80_g732n-SiZ8jKzdE-54" vertex="1">
          <mxGeometry y="52" width="280" height="8" as="geometry" />
        </mxCell>
        <mxCell id="3WMSXZxI-maQ4MXHyPjK-13" value="+ Input : Constructor" style="text;align=left;verticalAlign=top;spacingLeft=4;spacingRight=4;overflow=hidden;rotatable=0;points=[[0,0.5],[1,0.5]];portConstraint=eastwest;" parent="dg80_g732n-SiZ8jKzdE-54" vertex="1">
          <mxGeometry y="60" width="280" height="26" as="geometry" />
        </mxCell>
        <mxCell id="3WMSXZxI-maQ4MXHyPjK-14" value="+ ~Input : Destructor" style="text;align=left;verticalAlign=top;spacingLeft=4;spacingRight=4;overflow=hidden;rotatable=0;points=[[0,0.5],[1,0.5]];portConstraint=eastwest;" parent="dg80_g732n-SiZ8jKzdE-54" vertex="1">
          <mxGeometry y="86" width="280" height="26" as="geometry" />
        </mxCell>
        <mxCell id="3WMSXZxI-maQ4MXHyPjK-15" value="+ setInputs(inputs : const std::vector&lt;std::size_t&gt;)&#xa;: void" style="text;align=left;verticalAlign=top;spacingLeft=4;spacingRight=4;overflow=hidden;rotatable=0;points=[[0,0.5],[1,0.5]];portConstraint=eastwest;" parent="dg80_g732n-SiZ8jKzdE-54" vertex="1">
          <mxGeometry y="112" width="280" height="38" as="geometry" />
        </mxCell>
        <mxCell id="3WMSXZxI-maQ4MXHyPjK-16" value="+ getInputs(void) : std::vector&lt;std::size_t&gt;" style="text;align=left;verticalAlign=top;spacingLeft=4;spacingRight=4;overflow=hidden;rotatable=0;points=[[0,0.5],[1,0.5]];portConstraint=eastwest;" parent="dg80_g732n-SiZ8jKzdE-54" vertex="1">
          <mxGeometry y="150" width="280" height="38" as="geometry" />
        </mxCell>
        <mxCell id="3WMSXZxI-maQ4MXHyPjK-17" value="+ contains(toSearch : std::vector&lt;std::size_t)&#xa; : bool" style="text;align=left;verticalAlign=top;spacingLeft=4;spacingRight=4;overflow=hidden;rotatable=0;points=[[0,0.5],[1,0.5]];portConstraint=eastwest;" parent="dg80_g732n-SiZ8jKzdE-54" vertex="1">
          <mxGeometry y="188" width="280" height="38" as="geometry" />
        </mxCell>
        <mxCell id="dg80_g732n-SiZ8jKzdE-57" value="Component Health" style="swimlane;fontStyle=2;align=center;verticalAlign=top;childLayout=stackLayout;horizontal=1;startSize=26;horizontalStack=0;resizeParent=1;resizeLast=0;collapsible=1;marginBottom=0;rounded=0;shadow=0;strokeWidth=1;" parent="WIyWlLk6GJQsqaUBKTNV-1" vertex="1">
          <mxGeometry x="245" y="510" width="260" height="260" as="geometry">
            <mxRectangle x="230" y="140" width="160" height="26" as="alternateBounds" />
          </mxGeometry>
        </mxCell>
        <mxCell id="dg80_g732n-SiZ8jKzdE-58" value="-  _health : std::size_t" style="text;align=left;verticalAlign=top;spacingLeft=4;spacingRight=4;overflow=hidden;rotatable=0;points=[[0,0.5],[1,0.5]];portConstraint=eastwest;" parent="dg80_g732n-SiZ8jKzdE-57" vertex="1">
          <mxGeometry y="26" width="260" height="26" as="geometry" />
        </mxCell>
        <mxCell id="dg80_g732n-SiZ8jKzdE-59" value="" style="line;html=1;strokeWidth=1;align=left;verticalAlign=middle;spacingTop=-1;spacingLeft=3;spacingRight=3;rotatable=0;labelPosition=right;points=[];portConstraint=eastwest;" parent="dg80_g732n-SiZ8jKzdE-57" vertex="1">
          <mxGeometry y="52" width="260" height="8" as="geometry" />
        </mxCell>
        <mxCell id="3WMSXZxI-maQ4MXHyPjK-8" value="+ Health(health : std::size_t) : Constructor" style="text;align=left;verticalAlign=top;spacingLeft=4;spacingRight=4;overflow=hidden;rotatable=0;points=[[0,0.5],[1,0.5]];portConstraint=eastwest;" parent="dg80_g732n-SiZ8jKzdE-57" vertex="1">
          <mxGeometry y="60" width="260" height="40" as="geometry" />
        </mxCell>
        <mxCell id="3WMSXZxI-maQ4MXHyPjK-9" value="+ ~Health : Destructor" style="text;align=left;verticalAlign=top;spacingLeft=4;spacingRight=4;overflow=hidden;rotatable=0;points=[[0,0.5],[1,0.5]];portConstraint=eastwest;" parent="dg80_g732n-SiZ8jKzdE-57" vertex="1">
          <mxGeometry y="100" width="260" height="40" as="geometry" />
        </mxCell>
        <mxCell id="RfQQwh8-WgGAOcPRMrEU-2" value="+ getHealth(void) : std::size_t" style="text;align=left;verticalAlign=top;spacingLeft=4;spacingRight=4;overflow=hidden;rotatable=0;points=[[0,0.5],[1,0.5]];portConstraint=eastwest;" parent="dg80_g732n-SiZ8jKzdE-57" vertex="1">
          <mxGeometry y="140" width="260" height="40" as="geometry" />
        </mxCell>
        <mxCell id="RfQQwh8-WgGAOcPRMrEU-3" value="+ setHealth(Life : std::size_t) : void&#xa;&#xa;" style="text;align=left;verticalAlign=top;spacingLeft=4;spacingRight=4;overflow=hidden;rotatable=0;points=[[0,0.5],[1,0.5]];portConstraint=eastwest;" parent="dg80_g732n-SiZ8jKzdE-57" vertex="1">
          <mxGeometry y="180" width="260" height="40" as="geometry" />
        </mxCell>
        <mxCell id="dg80_g732n-SiZ8jKzdE-63" value="Component Position" style="swimlane;fontStyle=2;align=center;verticalAlign=top;childLayout=stackLayout;horizontal=1;startSize=26;horizontalStack=0;resizeParent=1;resizeLast=0;collapsible=1;marginBottom=0;rounded=0;shadow=0;strokeWidth=1;" parent="WIyWlLk6GJQsqaUBKTNV-1" vertex="1">
          <mxGeometry x="5" y="225" width="240" height="270" as="geometry">
            <mxRectangle x="230" y="140" width="160" height="26" as="alternateBounds" />
          </mxGeometry>
        </mxCell>
        <mxCell id="dg80_g732n-SiZ8jKzdE-64" value="- _x : float" style="text;align=left;verticalAlign=top;spacingLeft=4;spacingRight=4;overflow=hidden;rotatable=0;points=[[0,0.5],[1,0.5]];portConstraint=eastwest;" parent="dg80_g732n-SiZ8jKzdE-63" vertex="1">
          <mxGeometry y="26" width="240" height="26" as="geometry" />
        </mxCell>
        <mxCell id="3WMSXZxI-maQ4MXHyPjK-21" value="- _y : float" style="text;align=left;verticalAlign=top;spacingLeft=4;spacingRight=4;overflow=hidden;rotatable=0;points=[[0,0.5],[1,0.5]];portConstraint=eastwest;" parent="dg80_g732n-SiZ8jKzdE-63" vertex="1">
          <mxGeometry y="52" width="240" height="26" as="geometry" />
        </mxCell>
        <mxCell id="dg80_g732n-SiZ8jKzdE-65" value="" style="line;html=1;strokeWidth=1;align=left;verticalAlign=middle;spacingTop=-1;spacingLeft=3;spacingRight=3;rotatable=0;labelPosition=right;points=[];portConstraint=eastwest;" parent="dg80_g732n-SiZ8jKzdE-63" vertex="1">
          <mxGeometry y="78" width="240" height="8" as="geometry" />
        </mxCell>
        <mxCell id="3WMSXZxI-maQ4MXHyPjK-25" value="+ Position : constructor" style="text;align=left;verticalAlign=top;spacingLeft=4;spacingRight=4;overflow=hidden;rotatable=0;points=[[0,0.5],[1,0.5]];portConstraint=eastwest;" parent="dg80_g732n-SiZ8jKzdE-63" vertex="1">
          <mxGeometry y="86" width="240" height="26" as="geometry" />
        </mxCell>
        <mxCell id="RfQQwh8-WgGAOcPRMrEU-30" value="+ ~Position(void) : Destructor" style="text;align=left;verticalAlign=top;spacingLeft=4;spacingRight=4;overflow=hidden;rotatable=0;points=[[0,0.5],[1,0.5]];portConstraint=eastwest;" parent="dg80_g732n-SiZ8jKzdE-63" vertex="1">
          <mxGeometry y="112" width="240" height="26" as="geometry" />
        </mxCell>
        <mxCell id="3WMSXZxI-maQ4MXHyPjK-24" value="+ getX(void) : float" style="text;align=left;verticalAlign=top;spacingLeft=4;spacingRight=4;overflow=hidden;rotatable=0;points=[[0,0.5],[1,0.5]];portConstraint=eastwest;" parent="dg80_g732n-SiZ8jKzdE-63" vertex="1">
          <mxGeometry y="138" width="240" height="26" as="geometry" />
        </mxCell>
        <mxCell id="3WMSXZxI-maQ4MXHyPjK-22" value="+ getY(void) : float" style="text;align=left;verticalAlign=top;spacingLeft=4;spacingRight=4;overflow=hidden;rotatable=0;points=[[0,0.5],[1,0.5]];portConstraint=eastwest;" parent="dg80_g732n-SiZ8jKzdE-63" vertex="1">
          <mxGeometry y="164" width="240" height="26" as="geometry" />
        </mxCell>
        <mxCell id="3WMSXZxI-maQ4MXHyPjK-26" value="+ getPosPair(void) : std::pair&lt;float, float&gt;" style="text;align=left;verticalAlign=top;spacingLeft=4;spacingRight=4;overflow=hidden;rotatable=0;points=[[0,0.5],[1,0.5]];portConstraint=eastwest;" parent="dg80_g732n-SiZ8jKzdE-63" vertex="1">
          <mxGeometry y="190" width="240" height="26" as="geometry" />
        </mxCell>
        <mxCell id="RfQQwh8-WgGAOcPRMrEU-31" value="+ setX(x : float) : void" style="text;align=left;verticalAlign=top;spacingLeft=4;spacingRight=4;overflow=hidden;rotatable=0;points=[[0,0.5],[1,0.5]];portConstraint=eastwest;" parent="dg80_g732n-SiZ8jKzdE-63" vertex="1">
          <mxGeometry y="216" width="240" height="26" as="geometry" />
        </mxCell>
        <mxCell id="3WMSXZxI-maQ4MXHyPjK-23" value="+ setY(y : float) : void" style="text;align=left;verticalAlign=top;spacingLeft=4;spacingRight=4;overflow=hidden;rotatable=0;points=[[0,0.5],[1,0.5]];portConstraint=eastwest;" parent="dg80_g732n-SiZ8jKzdE-63" vertex="1">
          <mxGeometry y="242" width="240" height="26" as="geometry" />
        </mxCell>
        <mxCell id="RfQQwh8-WgGAOcPRMrEU-7" value="Ennemi 1" style="swimlane;fontStyle=2;align=center;verticalAlign=top;childLayout=stackLayout;horizontal=1;startSize=26;horizontalStack=0;resizeParent=1;resizeLast=0;collapsible=1;marginBottom=0;rounded=0;shadow=0;strokeWidth=1;" parent="WIyWlLk6GJQsqaUBKTNV-1" vertex="1">
          <mxGeometry x="290" y="820" width="110" height="150" as="geometry">
            <mxRectangle x="230" y="140" width="160" height="26" as="alternateBounds" />
          </mxGeometry>
        </mxCell>
        <mxCell id="RfQQwh8-WgGAOcPRMrEU-8" value="ID" style="text;align=left;verticalAlign=top;spacingLeft=4;spacingRight=4;overflow=hidden;rotatable=0;points=[[0,0.5],[1,0.5]];portConstraint=eastwest;" parent="RfQQwh8-WgGAOcPRMrEU-7" vertex="1">
          <mxGeometry y="26" width="110" height="26" as="geometry" />
        </mxCell>
        <mxCell id="RfQQwh8-WgGAOcPRMrEU-9" value="" style="line;html=1;strokeWidth=1;align=left;verticalAlign=middle;spacingTop=-1;spacingLeft=3;spacingRight=3;rotatable=0;labelPosition=right;points=[];portConstraint=eastwest;" parent="RfQQwh8-WgGAOcPRMrEU-7" vertex="1">
          <mxGeometry y="52" width="110" height="8" as="geometry" />
        </mxCell>
        <mxCell id="RfQQwh8-WgGAOcPRMrEU-10" value="Ennemi 2" style="swimlane;fontStyle=2;align=center;verticalAlign=top;childLayout=stackLayout;horizontal=1;startSize=26;horizontalStack=0;resizeParent=1;resizeLast=0;collapsible=1;marginBottom=0;rounded=0;shadow=0;strokeWidth=1;" parent="WIyWlLk6GJQsqaUBKTNV-1" vertex="1">
          <mxGeometry x="440" y="820" width="110" height="150" as="geometry">
            <mxRectangle x="230" y="140" width="160" height="26" as="alternateBounds" />
          </mxGeometry>
        </mxCell>
        <mxCell id="RfQQwh8-WgGAOcPRMrEU-11" value="ID" style="text;align=left;verticalAlign=top;spacingLeft=4;spacingRight=4;overflow=hidden;rotatable=0;points=[[0,0.5],[1,0.5]];portConstraint=eastwest;" parent="RfQQwh8-WgGAOcPRMrEU-10" vertex="1">
          <mxGeometry y="26" width="110" height="26" as="geometry" />
        </mxCell>
        <mxCell id="RfQQwh8-WgGAOcPRMrEU-12" value="" style="line;html=1;strokeWidth=1;align=left;verticalAlign=middle;spacingTop=-1;spacingLeft=3;spacingRight=3;rotatable=0;labelPosition=right;points=[];portConstraint=eastwest;" parent="RfQQwh8-WgGAOcPRMrEU-10" vertex="1">
          <mxGeometry y="52" width="110" height="8" as="geometry" />
        </mxCell>
        <mxCell id="RfQQwh8-WgGAOcPRMrEU-13" value="Ennemi 3" style="swimlane;fontStyle=2;align=center;verticalAlign=top;childLayout=stackLayout;horizontal=1;startSize=26;horizontalStack=0;resizeParent=1;resizeLast=0;collapsible=1;marginBottom=0;rounded=0;shadow=0;strokeWidth=1;" parent="WIyWlLk6GJQsqaUBKTNV-1" vertex="1">
          <mxGeometry x="580" y="820" width="110" height="150" as="geometry">
            <mxRectangle x="230" y="140" width="160" height="26" as="alternateBounds" />
          </mxGeometry>
        </mxCell>
        <mxCell id="RfQQwh8-WgGAOcPRMrEU-14" value="ID" style="text;align=left;verticalAlign=top;spacingLeft=4;spacingRight=4;overflow=hidden;rotatable=0;points=[[0,0.5],[1,0.5]];portConstraint=eastwest;" parent="RfQQwh8-WgGAOcPRMrEU-13" vertex="1">
          <mxGeometry y="26" width="110" height="26" as="geometry" />
        </mxCell>
        <mxCell id="RfQQwh8-WgGAOcPRMrEU-15" value="" style="line;html=1;strokeWidth=1;align=left;verticalAlign=middle;spacingTop=-1;spacingLeft=3;spacingRight=3;rotatable=0;labelPosition=right;points=[];portConstraint=eastwest;" parent="RfQQwh8-WgGAOcPRMrEU-13" vertex="1">
          <mxGeometry y="52" width="110" height="8" as="geometry" />
        </mxCell>
        <mxCell id="RfQQwh8-WgGAOcPRMrEU-37" value="Component Hitbox" style="swimlane;fontStyle=2;align=center;verticalAlign=top;childLayout=stackLayout;horizontal=1;startSize=26;horizontalStack=0;resizeParent=1;resizeLast=0;collapsible=1;marginBottom=0;rounded=0;shadow=0;strokeWidth=1;" parent="WIyWlLk6GJQsqaUBKTNV-1" vertex="1">
          <mxGeometry x="527" y="495" width="300" height="275" as="geometry">
            <mxRectangle x="230" y="140" width="160" height="26" as="alternateBounds" />
          </mxGeometry>
        </mxCell>
        <mxCell id="RfQQwh8-WgGAOcPRMrEU-38" value="- _height : std::size_t" style="text;align=left;verticalAlign=top;spacingLeft=4;spacingRight=4;overflow=hidden;rotatable=0;points=[[0,0.5],[1,0.5]];portConstraint=eastwest;" parent="RfQQwh8-WgGAOcPRMrEU-37" vertex="1">
          <mxGeometry y="26" width="300" height="26" as="geometry" />
        </mxCell>
        <mxCell id="RfQQwh8-WgGAOcPRMrEU-40" value="- _width : std::size_t" style="text;align=left;verticalAlign=top;spacingLeft=4;spacingRight=4;overflow=hidden;rotatable=0;points=[[0,0.5],[1,0.5]];portConstraint=eastwest;" parent="RfQQwh8-WgGAOcPRMrEU-37" vertex="1">
          <mxGeometry y="52" width="300" height="26" as="geometry" />
        </mxCell>
        <mxCell id="RfQQwh8-WgGAOcPRMrEU-39" value="" style="line;html=1;strokeWidth=1;align=left;verticalAlign=middle;spacingTop=-1;spacingLeft=3;spacingRight=3;rotatable=0;labelPosition=right;points=[];portConstraint=eastwest;" parent="RfQQwh8-WgGAOcPRMrEU-37" vertex="1">
          <mxGeometry y="78" width="300" height="8" as="geometry" />
        </mxCell>
        <mxCell id="RfQQwh8-WgGAOcPRMrEU-41" value="+ Hitbox(width, height : float, float) : Constructor" style="text;align=left;verticalAlign=top;spacingLeft=4;spacingRight=4;overflow=hidden;rotatable=0;points=[[0,0.5],[1,0.5]];portConstraint=eastwest;" parent="RfQQwh8-WgGAOcPRMrEU-37" vertex="1">
          <mxGeometry y="86" width="300" height="26" as="geometry" />
        </mxCell>
        <mxCell id="3WMSXZxI-maQ4MXHyPjK-11" value="+ ~Hitbox : Destructor" style="text;align=left;verticalAlign=top;spacingLeft=4;spacingRight=4;overflow=hidden;rotatable=0;points=[[0,0.5],[1,0.5]];portConstraint=eastwest;" parent="RfQQwh8-WgGAOcPRMrEU-37" vertex="1">
          <mxGeometry y="112" width="300" height="26" as="geometry" />
        </mxCell>
        <mxCell id="3WMSXZxI-maQ4MXHyPjK-10" value="+ getHeight(void) : std::size_t" style="text;align=left;verticalAlign=top;spacingLeft=4;spacingRight=4;overflow=hidden;rotatable=0;points=[[0,0.5],[1,0.5]];portConstraint=eastwest;" parent="RfQQwh8-WgGAOcPRMrEU-37" vertex="1">
          <mxGeometry y="138" width="300" height="26" as="geometry" />
        </mxCell>
        <mxCell id="RfQQwh8-WgGAOcPRMrEU-42" value="+ setHeight(Height : std::size_t) : void" style="text;align=left;verticalAlign=top;spacingLeft=4;spacingRight=4;overflow=hidden;rotatable=0;points=[[0,0.5],[1,0.5]];portConstraint=eastwest;" parent="RfQQwh8-WgGAOcPRMrEU-37" vertex="1">
          <mxGeometry y="164" width="300" height="26" as="geometry" />
        </mxCell>
        <mxCell id="RfQQwh8-WgGAOcPRMrEU-43" value="+ getWidth(void) : std::size_t" style="text;align=left;verticalAlign=top;spacingLeft=4;spacingRight=4;overflow=hidden;rotatable=0;points=[[0,0.5],[1,0.5]];portConstraint=eastwest;" parent="RfQQwh8-WgGAOcPRMrEU-37" vertex="1">
          <mxGeometry y="190" width="300" height="26" as="geometry" />
        </mxCell>
        <mxCell id="RfQQwh8-WgGAOcPRMrEU-44" value="+ setWidth(Width : std::size_t) : void" style="text;align=left;verticalAlign=top;spacingLeft=4;spacingRight=4;overflow=hidden;rotatable=0;points=[[0,0.5],[1,0.5]];portConstraint=eastwest;" parent="RfQQwh8-WgGAOcPRMrEU-37" vertex="1">
          <mxGeometry y="216" width="300" height="26" as="geometry" />
        </mxCell>
        <mxCell id="RfQQwh8-WgGAOcPRMrEU-48" value="Component Render2D" style="swimlane;fontStyle=2;align=center;verticalAlign=top;childLayout=stackLayout;horizontal=1;startSize=26;horizontalStack=0;resizeParent=1;resizeLast=0;collapsible=1;marginBottom=0;rounded=0;shadow=0;strokeWidth=1;" parent="WIyWlLk6GJQsqaUBKTNV-1" vertex="1">
          <mxGeometry x="570" y="130" width="330" height="350" as="geometry">
            <mxRectangle x="230" y="140" width="160" height="26" as="alternateBounds" />
          </mxGeometry>
        </mxCell>
        <mxCell id="5C8Mgu6dD55lEWtMiVsK-2" value="- _color : raylib::Color" style="text;align=left;verticalAlign=top;spacingLeft=4;spacingRight=4;overflow=hidden;rotatable=0;points=[[0,0.5],[1,0.5]];portConstraint=eastwest;" parent="RfQQwh8-WgGAOcPRMrEU-48" vertex="1">
          <mxGeometry y="26" width="330" height="26" as="geometry" />
        </mxCell>
        <mxCell id="5C8Mgu6dD55lEWtMiVsK-3" value="- _path : std::string" style="text;align=left;verticalAlign=top;spacingLeft=4;spacingRight=4;overflow=hidden;rotatable=0;points=[[0,0.5],[1,0.5]];portConstraint=eastwest;" parent="RfQQwh8-WgGAOcPRMrEU-48" vertex="1">
          <mxGeometry y="52" width="330" height="26" as="geometry" />
        </mxCell>
        <mxCell id="RfQQwh8-WgGAOcPRMrEU-50" value="" style="line;html=1;strokeWidth=1;align=left;verticalAlign=middle;spacingTop=-1;spacingLeft=3;spacingRight=3;rotatable=0;labelPosition=right;points=[];portConstraint=eastwest;" parent="RfQQwh8-WgGAOcPRMrEU-48" vertex="1">
          <mxGeometry y="78" width="330" height="8" as="geometry" />
        </mxCell>
        <mxCell id="RfQQwh8-WgGAOcPRMrEU-51" value="+ Render2D : Constructor" style="text;align=left;verticalAlign=top;spacingLeft=4;spacingRight=4;overflow=hidden;rotatable=0;points=[[0,0.5],[1,0.5]];portConstraint=eastwest;" parent="RfQQwh8-WgGAOcPRMrEU-48" vertex="1">
          <mxGeometry y="86" width="330" height="26" as="geometry" />
        </mxCell>
        <mxCell id="5C8Mgu6dD55lEWtMiVsK-7" value="+ Render2D(other : const Render2D&amp;) : Constructor" style="text;align=left;verticalAlign=top;spacingLeft=4;spacingRight=4;overflow=hidden;rotatable=0;points=[[0,0.5],[1,0.5]];portConstraint=eastwest;" parent="RfQQwh8-WgGAOcPRMrEU-48" vertex="1">
          <mxGeometry y="112" width="330" height="26" as="geometry" />
        </mxCell>
        <mxCell id="5C8Mgu6dD55lEWtMiVsK-6" value="+ operator=(other : const Render2D&amp;) : Render2D&amp;" style="text;align=left;verticalAlign=top;spacingLeft=4;spacingRight=4;overflow=hidden;rotatable=0;points=[[0,0.5],[1,0.5]];portConstraint=eastwest;" parent="RfQQwh8-WgGAOcPRMrEU-48" vertex="1">
          <mxGeometry y="138" width="330" height="26" as="geometry" />
        </mxCell>
        <mxCell id="5C8Mgu6dD55lEWtMiVsK-5" value="+ ~Render2D : Destructor" style="text;align=left;verticalAlign=top;spacingLeft=4;spacingRight=4;overflow=hidden;rotatable=0;points=[[0,0.5],[1,0.5]];portConstraint=eastwest;" parent="RfQQwh8-WgGAOcPRMrEU-48" vertex="1">
          <mxGeometry y="164" width="330" height="26" as="geometry" />
        </mxCell>
        <mxCell id="5C8Mgu6dD55lEWtMiVsK-8" value="+ Render(texture, position, rotation, scale : raylib::Texture, &#xa;raylib::Vector3, raylib::Vector3, raylib::Vector3) : void" style="text;align=left;verticalAlign=top;spacingLeft=4;spacingRight=4;overflow=hidden;rotatable=0;points=[[0,0.5],[1,0.5]];portConstraint=eastwest;" parent="RfQQwh8-WgGAOcPRMrEU-48" vertex="1">
          <mxGeometry y="190" width="330" height="50" as="geometry" />
        </mxCell>
        <mxCell id="5C8Mgu6dD55lEWtMiVsK-9" value="+ getColor(void) : const &amp;raylib::Color" style="text;align=left;verticalAlign=top;spacingLeft=4;spacingRight=4;overflow=hidden;rotatable=0;points=[[0,0.5],[1,0.5]];portConstraint=eastwest;" parent="RfQQwh8-WgGAOcPRMrEU-48" vertex="1">
          <mxGeometry y="240" width="330" height="30" as="geometry" />
        </mxCell>
        <mxCell id="5C8Mgu6dD55lEWtMiVsK-11" value="+ getPath(void) : const std::string" style="text;align=left;verticalAlign=top;spacingLeft=4;spacingRight=4;overflow=hidden;rotatable=0;points=[[0,0.5],[1,0.5]];portConstraint=eastwest;" parent="RfQQwh8-WgGAOcPRMrEU-48" vertex="1">
          <mxGeometry y="270" width="330" height="30" as="geometry" />
        </mxCell>
        <mxCell id="5C8Mgu6dD55lEWtMiVsK-10" value="+ setColor(color : const raylib::Color) : void" style="text;align=left;verticalAlign=top;spacingLeft=4;spacingRight=4;overflow=hidden;rotatable=0;points=[[0,0.5],[1,0.5]];portConstraint=eastwest;" parent="RfQQwh8-WgGAOcPRMrEU-48" vertex="1">
          <mxGeometry y="300" width="330" height="30" as="geometry" />
        </mxCell>
        <mxCell id="a_ASE_JsQil1tVe32K6G-0" value="Component Scale" style="swimlane;fontStyle=2;align=center;verticalAlign=top;childLayout=stackLayout;horizontal=1;startSize=26;horizontalStack=0;resizeParent=1;resizeLast=0;collapsible=1;marginBottom=0;rounded=0;shadow=0;strokeWidth=1;" parent="WIyWlLk6GJQsqaUBKTNV-1" vertex="1">
          <mxGeometry x="5" y="-70" width="235" height="280" as="geometry">
            <mxRectangle x="230" y="140" width="160" height="26" as="alternateBounds" />
          </mxGeometry>
        </mxCell>
        <mxCell id="a_ASE_JsQil1tVe32K6G-1" value="- _scale : float" style="text;align=left;verticalAlign=top;spacingLeft=4;spacingRight=4;overflow=hidden;rotatable=0;points=[[0,0.5],[1,0.5]];portConstraint=eastwest;" parent="a_ASE_JsQil1tVe32K6G-0" vertex="1">
          <mxGeometry y="26" width="235" height="26" as="geometry" />
        </mxCell>
        <mxCell id="a_ASE_JsQil1tVe32K6G-2" value="" style="line;html=1;strokeWidth=1;align=left;verticalAlign=middle;spacingTop=-1;spacingLeft=3;spacingRight=3;rotatable=0;labelPosition=right;points=[];portConstraint=eastwest;" parent="a_ASE_JsQil1tVe32K6G-0" vertex="1">
          <mxGeometry y="52" width="235" height="8" as="geometry" />
        </mxCell>
        <mxCell id="5C8Mgu6dD55lEWtMiVsK-37" value="+ Scale : Constructor" style="text;align=left;verticalAlign=top;spacingLeft=4;spacingRight=4;overflow=hidden;rotatable=0;points=[[0,0.5],[1,0.5]];portConstraint=eastwest;" parent="a_ASE_JsQil1tVe32K6G-0" vertex="1">
          <mxGeometry y="60" width="235" height="26" as="geometry" />
        </mxCell>
        <mxCell id="5C8Mgu6dD55lEWtMiVsK-38" value="+ ~Scale : Destructor" style="text;align=left;verticalAlign=top;spacingLeft=4;spacingRight=4;overflow=hidden;rotatable=0;points=[[0,0.5],[1,0.5]];portConstraint=eastwest;" parent="a_ASE_JsQil1tVe32K6G-0" vertex="1">
          <mxGeometry y="86" width="235" height="26" as="geometry" />
        </mxCell>
        <mxCell id="a_ASE_JsQil1tVe32K6G-3" value="+ getScale(void) : float" style="text;align=left;verticalAlign=top;spacingLeft=4;spacingRight=4;overflow=hidden;rotatable=0;points=[[0,0.5],[1,0.5]];portConstraint=eastwest;" parent="a_ASE_JsQil1tVe32K6G-0" vertex="1">
          <mxGeometry y="112" width="235" height="26" as="geometry" />
        </mxCell>
        <mxCell id="a_ASE_JsQil1tVe32K6G-4" value="+ setScale(scale : float) : void" style="text;align=left;verticalAlign=top;spacingLeft=4;spacingRight=4;overflow=hidden;rotatable=0;points=[[0,0.5],[1,0.5]];portConstraint=eastwest;" parent="a_ASE_JsQil1tVe32K6G-0" vertex="1">
          <mxGeometry y="138" width="235" height="26" as="geometry" />
        </mxCell>
        <mxCell id="3WMSXZxI-maQ4MXHyPjK-0" value="Component Backgroud" style="swimlane;fontStyle=2;align=center;verticalAlign=top;childLayout=stackLayout;horizontal=1;startSize=26;horizontalStack=0;resizeParent=1;resizeLast=0;collapsible=1;marginBottom=0;rounded=0;shadow=0;strokeWidth=1;" parent="WIyWlLk6GJQsqaUBKTNV-1" vertex="1">
          <mxGeometry y="510" width="240" height="260" as="geometry">
            <mxRectangle x="230" y="140" width="160" height="26" as="alternateBounds" />
          </mxGeometry>
        </mxCell>
        <mxCell id="3WMSXZxI-maQ4MXHyPjK-3" value="" style="line;html=1;strokeWidth=1;align=left;verticalAlign=middle;spacingTop=-1;spacingLeft=3;spacingRight=3;rotatable=0;labelPosition=right;points=[];portConstraint=eastwest;" parent="3WMSXZxI-maQ4MXHyPjK-0" vertex="1">
          <mxGeometry y="26" width="240" height="8" as="geometry" />
        </mxCell>
        <mxCell id="3WMSXZxI-maQ4MXHyPjK-4" value="+ Background : Constructor" style="text;align=left;verticalAlign=top;spacingLeft=4;spacingRight=4;overflow=hidden;rotatable=0;points=[[0,0.5],[1,0.5]];portConstraint=eastwest;" parent="3WMSXZxI-maQ4MXHyPjK-0" vertex="1">
          <mxGeometry y="34" width="240" height="26" as="geometry" />
        </mxCell>
        <mxCell id="3WMSXZxI-maQ4MXHyPjK-5" value="+ ~Background : Destructor" style="text;align=left;verticalAlign=top;spacingLeft=4;spacingRight=4;overflow=hidden;rotatable=0;points=[[0,0.5],[1,0.5]];portConstraint=eastwest;" parent="3WMSXZxI-maQ4MXHyPjK-0" vertex="1">
          <mxGeometry y="60" width="240" height="26" as="geometry" />
        </mxCell>
        <mxCell id="3WMSXZxI-maQ4MXHyPjK-18" value="Enum Input" style="swimlane;fontStyle=2;align=center;verticalAlign=top;childLayout=stackLayout;horizontal=1;startSize=26;horizontalStack=0;resizeParent=1;resizeLast=0;collapsible=1;marginBottom=0;rounded=0;shadow=0;strokeWidth=1;" parent="WIyWlLk6GJQsqaUBKTNV-1" vertex="1">
          <mxGeometry x="1140" y="500" width="250" height="270" as="geometry">
            <mxRectangle x="230" y="140" width="160" height="26" as="alternateBounds" />
          </mxGeometry>
        </mxCell>
        <mxCell id="3WMSXZxI-maQ4MXHyPjK-19" value="MENU = 0,&#xa;RIGHT = 1,&#xa;UP = 2,&#xa;LEFT = 3,&#xa;DOWN = 4,&#xa;SPACE = 5" style="text;align=left;verticalAlign=top;spacingLeft=4;spacingRight=4;overflow=hidden;rotatable=0;points=[[0,0.5],[1,0.5]];portConstraint=eastwest;" parent="3WMSXZxI-maQ4MXHyPjK-18" vertex="1">
          <mxGeometry y="26" width="250" height="104" as="geometry" />
        </mxCell>
        <mxCell id="3WMSXZxI-maQ4MXHyPjK-20" value="" style="line;html=1;strokeWidth=1;align=left;verticalAlign=middle;spacingTop=-1;spacingLeft=3;spacingRight=3;rotatable=0;labelPosition=right;points=[];portConstraint=eastwest;" parent="3WMSXZxI-maQ4MXHyPjK-18" vertex="1">
          <mxGeometry y="130" width="250" height="8" as="geometry" />
        </mxCell>
        <mxCell id="5C8Mgu6dD55lEWtMiVsK-12" value="Component Render3D" style="swimlane;fontStyle=2;align=center;verticalAlign=top;childLayout=stackLayout;horizontal=1;startSize=26;horizontalStack=0;resizeParent=1;resizeLast=0;collapsible=1;marginBottom=0;rounded=0;shadow=0;strokeWidth=1;" parent="WIyWlLk6GJQsqaUBKTNV-1" vertex="1">
          <mxGeometry x="911" y="130" width="330" height="350" as="geometry">
            <mxRectangle x="230" y="140" width="160" height="26" as="alternateBounds" />
          </mxGeometry>
        </mxCell>
        <mxCell id="5C8Mgu6dD55lEWtMiVsK-13" value="- _color : raylib::Color" style="text;align=left;verticalAlign=top;spacingLeft=4;spacingRight=4;overflow=hidden;rotatable=0;points=[[0,0.5],[1,0.5]];portConstraint=eastwest;" parent="5C8Mgu6dD55lEWtMiVsK-12" vertex="1">
          <mxGeometry y="26" width="330" height="26" as="geometry" />
        </mxCell>
        <mxCell id="5C8Mgu6dD55lEWtMiVsK-14" value="- _path : std::string" style="text;align=left;verticalAlign=top;spacingLeft=4;spacingRight=4;overflow=hidden;rotatable=0;points=[[0,0.5],[1,0.5]];portConstraint=eastwest;" parent="5C8Mgu6dD55lEWtMiVsK-12" vertex="1">
          <mxGeometry y="52" width="330" height="26" as="geometry" />
        </mxCell>
        <mxCell id="5C8Mgu6dD55lEWtMiVsK-15" value="" style="line;html=1;strokeWidth=1;align=left;verticalAlign=middle;spacingTop=-1;spacingLeft=3;spacingRight=3;rotatable=0;labelPosition=right;points=[];portConstraint=eastwest;" parent="5C8Mgu6dD55lEWtMiVsK-12" vertex="1">
          <mxGeometry y="78" width="330" height="8" as="geometry" />
        </mxCell>
        <mxCell id="5C8Mgu6dD55lEWtMiVsK-16" value="+ Render23 : Constructor" style="text;align=left;verticalAlign=top;spacingLeft=4;spacingRight=4;overflow=hidden;rotatable=0;points=[[0,0.5],[1,0.5]];portConstraint=eastwest;" parent="5C8Mgu6dD55lEWtMiVsK-12" vertex="1">
          <mxGeometry y="86" width="330" height="26" as="geometry" />
        </mxCell>
        <mxCell id="5C8Mgu6dD55lEWtMiVsK-17" value="+ Render3D(other : const Render3D&amp;) : Constructor" style="text;align=left;verticalAlign=top;spacingLeft=4;spacingRight=4;overflow=hidden;rotatable=0;points=[[0,0.5],[1,0.5]];portConstraint=eastwest;" parent="5C8Mgu6dD55lEWtMiVsK-12" vertex="1">
          <mxGeometry y="112" width="330" height="26" as="geometry" />
        </mxCell>
        <mxCell id="5C8Mgu6dD55lEWtMiVsK-18" value="+ operator=(other : const Render3D&amp;) : Render2D&amp;" style="text;align=left;verticalAlign=top;spacingLeft=4;spacingRight=4;overflow=hidden;rotatable=0;points=[[0,0.5],[1,0.5]];portConstraint=eastwest;" parent="5C8Mgu6dD55lEWtMiVsK-12" vertex="1">
          <mxGeometry y="138" width="330" height="26" as="geometry" />
        </mxCell>
        <mxCell id="5C8Mgu6dD55lEWtMiVsK-19" value="+ ~Render3D : Destructor" style="text;align=left;verticalAlign=top;spacingLeft=4;spacingRight=4;overflow=hidden;rotatable=0;points=[[0,0.5],[1,0.5]];portConstraint=eastwest;" parent="5C8Mgu6dD55lEWtMiVsK-12" vertex="1">
          <mxGeometry y="164" width="330" height="26" as="geometry" />
        </mxCell>
        <mxCell id="5C8Mgu6dD55lEWtMiVsK-20" value="+ Render(model, position, rotation, scale : raylib::Model, &#xa;raylib::Vector3, raylib::Vector3, raylib::Vector3) : void" style="text;align=left;verticalAlign=top;spacingLeft=4;spacingRight=4;overflow=hidden;rotatable=0;points=[[0,0.5],[1,0.5]];portConstraint=eastwest;" parent="5C8Mgu6dD55lEWtMiVsK-12" vertex="1">
          <mxGeometry y="190" width="330" height="50" as="geometry" />
        </mxCell>
        <mxCell id="5C8Mgu6dD55lEWtMiVsK-21" value="+ getColor(void) : const &amp;raylib::Color" style="text;align=left;verticalAlign=top;spacingLeft=4;spacingRight=4;overflow=hidden;rotatable=0;points=[[0,0.5],[1,0.5]];portConstraint=eastwest;" parent="5C8Mgu6dD55lEWtMiVsK-12" vertex="1">
          <mxGeometry y="240" width="330" height="30" as="geometry" />
        </mxCell>
        <mxCell id="5C8Mgu6dD55lEWtMiVsK-22" value="+ getPath(void) : const std::string" style="text;align=left;verticalAlign=top;spacingLeft=4;spacingRight=4;overflow=hidden;rotatable=0;points=[[0,0.5],[1,0.5]];portConstraint=eastwest;" parent="5C8Mgu6dD55lEWtMiVsK-12" vertex="1">
          <mxGeometry y="270" width="330" height="30" as="geometry" />
        </mxCell>
        <mxCell id="5C8Mgu6dD55lEWtMiVsK-23" value="+ setColor(color : const raylib::Color) : void" style="text;align=left;verticalAlign=top;spacingLeft=4;spacingRight=4;overflow=hidden;rotatable=0;points=[[0,0.5],[1,0.5]];portConstraint=eastwest;" parent="5C8Mgu6dD55lEWtMiVsK-12" vertex="1">
          <mxGeometry y="300" width="330" height="30" as="geometry" />
        </mxCell>
        <mxCell id="5C8Mgu6dD55lEWtMiVsK-24" value="Component Rotate" style="swimlane;fontStyle=2;align=center;verticalAlign=top;childLayout=stackLayout;horizontal=1;startSize=26;horizontalStack=0;resizeParent=1;resizeLast=0;collapsible=1;marginBottom=0;rounded=0;shadow=0;strokeWidth=1;" parent="WIyWlLk6GJQsqaUBKTNV-1" vertex="1">
          <mxGeometry x="1260" y="130" width="250" height="340" as="geometry">
            <mxRectangle x="230" y="140" width="160" height="26" as="alternateBounds" />
          </mxGeometry>
        </mxCell>
        <mxCell id="5C8Mgu6dD55lEWtMiVsK-25" value="- _x : float" style="text;align=left;verticalAlign=top;spacingLeft=4;spacingRight=4;overflow=hidden;rotatable=0;points=[[0,0.5],[1,0.5]];portConstraint=eastwest;" parent="5C8Mgu6dD55lEWtMiVsK-24" vertex="1">
          <mxGeometry y="26" width="250" height="26" as="geometry" />
        </mxCell>
        <mxCell id="5C8Mgu6dD55lEWtMiVsK-26" value="- _y : float" style="text;align=left;verticalAlign=top;spacingLeft=4;spacingRight=4;overflow=hidden;rotatable=0;points=[[0,0.5],[1,0.5]];portConstraint=eastwest;" parent="5C8Mgu6dD55lEWtMiVsK-24" vertex="1">
          <mxGeometry y="52" width="250" height="26" as="geometry" />
        </mxCell>
        <mxCell id="5C8Mgu6dD55lEWtMiVsK-32" value="- _z : float" style="text;align=left;verticalAlign=top;spacingLeft=4;spacingRight=4;overflow=hidden;rotatable=0;points=[[0,0.5],[1,0.5]];portConstraint=eastwest;" parent="5C8Mgu6dD55lEWtMiVsK-24" vertex="1">
          <mxGeometry y="78" width="250" height="26" as="geometry" />
        </mxCell>
        <mxCell id="5C8Mgu6dD55lEWtMiVsK-27" value="" style="line;html=1;strokeWidth=1;align=left;verticalAlign=middle;spacingTop=-1;spacingLeft=3;spacingRight=3;rotatable=0;labelPosition=right;points=[];portConstraint=eastwest;" parent="5C8Mgu6dD55lEWtMiVsK-24" vertex="1">
          <mxGeometry y="104" width="250" height="8" as="geometry" />
        </mxCell>
        <mxCell id="5C8Mgu6dD55lEWtMiVsK-28" value="+ getRotateX(void) : float" style="text;align=left;verticalAlign=top;spacingLeft=4;spacingRight=4;overflow=hidden;rotatable=0;points=[[0,0.5],[1,0.5]];portConstraint=eastwest;" parent="5C8Mgu6dD55lEWtMiVsK-24" vertex="1">
          <mxGeometry y="112" width="250" height="26" as="geometry" />
        </mxCell>
        <mxCell id="5C8Mgu6dD55lEWtMiVsK-33" value="+ getRotateY(void) : float" style="text;align=left;verticalAlign=top;spacingLeft=4;spacingRight=4;overflow=hidden;rotatable=0;points=[[0,0.5],[1,0.5]];portConstraint=eastwest;" parent="5C8Mgu6dD55lEWtMiVsK-24" vertex="1">
          <mxGeometry y="138" width="250" height="26" as="geometry" />
        </mxCell>
        <mxCell id="5C8Mgu6dD55lEWtMiVsK-34" value="+ getRotateZ(void) : float" style="text;align=left;verticalAlign=top;spacingLeft=4;spacingRight=4;overflow=hidden;rotatable=0;points=[[0,0.5],[1,0.5]];portConstraint=eastwest;" parent="5C8Mgu6dD55lEWtMiVsK-24" vertex="1">
          <mxGeometry y="164" width="250" height="26" as="geometry" />
        </mxCell>
        <mxCell id="5C8Mgu6dD55lEWtMiVsK-29" value="+ setRotateX(x : float) : void" style="text;align=left;verticalAlign=top;spacingLeft=4;spacingRight=4;overflow=hidden;rotatable=0;points=[[0,0.5],[1,0.5]];portConstraint=eastwest;" parent="5C8Mgu6dD55lEWtMiVsK-24" vertex="1">
          <mxGeometry y="190" width="250" height="26" as="geometry" />
        </mxCell>
        <mxCell id="5C8Mgu6dD55lEWtMiVsK-35" value="+ setRotateY(y : float) : void" style="text;align=left;verticalAlign=top;spacingLeft=4;spacingRight=4;overflow=hidden;rotatable=0;points=[[0,0.5],[1,0.5]];portConstraint=eastwest;" parent="5C8Mgu6dD55lEWtMiVsK-24" vertex="1">
          <mxGeometry y="216" width="250" height="26" as="geometry" />
        </mxCell>
        <mxCell id="5C8Mgu6dD55lEWtMiVsK-36" value="+ setRotateZ(z : float) : void" style="text;align=left;verticalAlign=top;spacingLeft=4;spacingRight=4;overflow=hidden;rotatable=0;points=[[0,0.5],[1,0.5]];portConstraint=eastwest;" parent="5C8Mgu6dD55lEWtMiVsK-24" vertex="1">
          <mxGeometry y="242" width="250" height="26" as="geometry" />
        </mxCell>
        <mxCell id="5C8Mgu6dD55lEWtMiVsK-46" value="Component Volume" style="swimlane;fontStyle=2;align=center;verticalAlign=top;childLayout=stackLayout;horizontal=1;startSize=26;horizontalStack=0;resizeParent=1;resizeLast=0;collapsible=1;marginBottom=0;rounded=0;shadow=0;strokeWidth=1;" parent="WIyWlLk6GJQsqaUBKTNV-1" vertex="1">
          <mxGeometry x="820" y="-290" width="290" height="380" as="geometry">
            <mxRectangle x="230" y="140" width="160" height="26" as="alternateBounds" />
          </mxGeometry>
        </mxCell>
        <mxCell id="5C8Mgu6dD55lEWtMiVsK-47" value="- _masterVolume : float" style="text;align=left;verticalAlign=top;spacingLeft=4;spacingRight=4;overflow=hidden;rotatable=0;points=[[0,0.5],[1,0.5]];portConstraint=eastwest;" parent="5C8Mgu6dD55lEWtMiVsK-46" vertex="1">
          <mxGeometry y="26" width="290" height="26" as="geometry" />
        </mxCell>
        <mxCell id="5C8Mgu6dD55lEWtMiVsK-48" value="- _musicVolume : float" style="text;align=left;verticalAlign=top;spacingLeft=4;spacingRight=4;overflow=hidden;rotatable=0;points=[[0,0.5],[1,0.5]];portConstraint=eastwest;" parent="5C8Mgu6dD55lEWtMiVsK-46" vertex="1">
          <mxGeometry y="52" width="290" height="26" as="geometry" />
        </mxCell>
        <mxCell id="5C8Mgu6dD55lEWtMiVsK-57" value="- _sfxVolume : float" style="text;align=left;verticalAlign=top;spacingLeft=4;spacingRight=4;overflow=hidden;rotatable=0;points=[[0,0.5],[1,0.5]];portConstraint=eastwest;" parent="5C8Mgu6dD55lEWtMiVsK-46" vertex="1">
          <mxGeometry y="78" width="290" height="26" as="geometry" />
        </mxCell>
        <mxCell id="5C8Mgu6dD55lEWtMiVsK-49" value="" style="line;html=1;strokeWidth=1;align=left;verticalAlign=middle;spacingTop=-1;spacingLeft=3;spacingRight=3;rotatable=0;labelPosition=right;points=[];portConstraint=eastwest;" parent="5C8Mgu6dD55lEWtMiVsK-46" vertex="1">
          <mxGeometry y="104" width="290" height="8" as="geometry" />
        </mxCell>
        <mxCell id="5C8Mgu6dD55lEWtMiVsK-50" value="+ Volume(masterVolume, musicVolume, cfxVolume&#xa; : float, float, float) : constructor" style="text;align=left;verticalAlign=top;spacingLeft=4;spacingRight=4;overflow=hidden;rotatable=0;points=[[0,0.5],[1,0.5]];portConstraint=eastwest;" parent="5C8Mgu6dD55lEWtMiVsK-46" vertex="1">
          <mxGeometry y="112" width="290" height="38" as="geometry" />
        </mxCell>
        <mxCell id="5C8Mgu6dD55lEWtMiVsK-58" value="+ ~Volume : Destructor" style="text;align=left;verticalAlign=top;spacingLeft=4;spacingRight=4;overflow=hidden;rotatable=0;points=[[0,0.5],[1,0.5]];portConstraint=eastwest;" parent="5C8Mgu6dD55lEWtMiVsK-46" vertex="1">
          <mxGeometry y="150" width="290" height="26" as="geometry" />
        </mxCell>
        <mxCell id="5C8Mgu6dD55lEWtMiVsK-51" value="+ getMasterVolume(void) : float" style="text;align=left;verticalAlign=top;spacingLeft=4;spacingRight=4;overflow=hidden;rotatable=0;points=[[0,0.5],[1,0.5]];portConstraint=eastwest;" parent="5C8Mgu6dD55lEWtMiVsK-46" vertex="1">
          <mxGeometry y="176" width="290" height="26" as="geometry" />
        </mxCell>
        <mxCell id="5C8Mgu6dD55lEWtMiVsK-52" value="+ getMusicVolume(void) : float" style="text;align=left;verticalAlign=top;spacingLeft=4;spacingRight=4;overflow=hidden;rotatable=0;points=[[0,0.5],[1,0.5]];portConstraint=eastwest;" parent="5C8Mgu6dD55lEWtMiVsK-46" vertex="1">
          <mxGeometry y="202" width="290" height="26" as="geometry" />
        </mxCell>
        <mxCell id="5C8Mgu6dD55lEWtMiVsK-53" value="+ getCfxVolume(void) : float" style="text;align=left;verticalAlign=top;spacingLeft=4;spacingRight=4;overflow=hidden;rotatable=0;points=[[0,0.5],[1,0.5]];portConstraint=eastwest;" parent="5C8Mgu6dD55lEWtMiVsK-46" vertex="1">
          <mxGeometry y="228" width="290" height="26" as="geometry" />
        </mxCell>
        <mxCell id="5C8Mgu6dD55lEWtMiVsK-54" value="+ setMasterVolume(volume : float) : void" style="text;align=left;verticalAlign=top;spacingLeft=4;spacingRight=4;overflow=hidden;rotatable=0;points=[[0,0.5],[1,0.5]];portConstraint=eastwest;" parent="5C8Mgu6dD55lEWtMiVsK-46" vertex="1">
          <mxGeometry y="254" width="290" height="26" as="geometry" />
        </mxCell>
        <mxCell id="5C8Mgu6dD55lEWtMiVsK-55" value="+ setMusicVolume(volume : float) : void" style="text;align=left;verticalAlign=top;spacingLeft=4;spacingRight=4;overflow=hidden;rotatable=0;points=[[0,0.5],[1,0.5]];portConstraint=eastwest;" parent="5C8Mgu6dD55lEWtMiVsK-46" vertex="1">
          <mxGeometry y="280" width="290" height="26" as="geometry" />
        </mxCell>
        <mxCell id="5C8Mgu6dD55lEWtMiVsK-56" value="+ setCfxVolume(volume : float) : void" style="text;align=left;verticalAlign=top;spacingLeft=4;spacingRight=4;overflow=hidden;rotatable=0;points=[[0,0.5],[1,0.5]];portConstraint=eastwest;" parent="5C8Mgu6dD55lEWtMiVsK-46" vertex="1">
          <mxGeometry y="306" width="290" height="26" as="geometry" />
        </mxCell>
        <mxCell id="poZoN8kQUyQc4HhDRA4U-5" value="ResourcePool" style="swimlane;fontStyle=2;align=center;verticalAlign=top;childLayout=stackLayout;horizontal=1;startSize=26;horizontalStack=0;resizeParent=1;resizeLast=0;collapsible=1;marginBottom=0;rounded=0;shadow=0;strokeWidth=1;" parent="WIyWlLk6GJQsqaUBKTNV-1" vertex="1">
          <mxGeometry x="44" y="-1070" width="370" height="430" as="geometry">
            <mxRectangle x="230" y="140" width="160" height="26" as="alternateBounds" />
          </mxGeometry>
        </mxCell>
        <mxCell id="poZoN8kQUyQc4HhDRA4U-6" value="- _models : std::map&lt;const std::string, raylib::Models&gt;" style="text;align=left;verticalAlign=top;spacingLeft=4;spacingRight=4;overflow=hidden;rotatable=0;points=[[0,0.5],[1,0.5]];portConstraint=eastwest;" parent="poZoN8kQUyQc4HhDRA4U-5" vertex="1">
          <mxGeometry y="26" width="370" height="26" as="geometry" />
        </mxCell>
        <mxCell id="poZoN8kQUyQc4HhDRA4U-7" value="- _textureModels : std::map&lt;const std::string, raylib::Texture&gt;" style="text;align=left;verticalAlign=top;spacingLeft=4;spacingRight=4;overflow=hidden;rotatable=0;points=[[0,0.5],[1,0.5]];portConstraint=eastwest;" parent="poZoN8kQUyQc4HhDRA4U-5" vertex="1">
          <mxGeometry y="52" width="370" height="26" as="geometry" />
        </mxCell>
        <mxCell id="poZoN8kQUyQc4HhDRA4U-8" value="- _textures : std::map&lt;const std::string, raylib::Texture&gt;" style="text;align=left;verticalAlign=top;spacingLeft=4;spacingRight=4;overflow=hidden;rotatable=0;points=[[0,0.5],[1,0.5]];portConstraint=eastwest;" parent="poZoN8kQUyQc4HhDRA4U-5" vertex="1">
          <mxGeometry y="78" width="370" height="26" as="geometry" />
        </mxCell>
        <mxCell id="poZoN8kQUyQc4HhDRA4U-9" value="- _textureImages : std::map&lt;const std::string, raylib::Image&gt;" style="text;align=left;verticalAlign=top;spacingLeft=4;spacingRight=4;overflow=hidden;rotatable=0;points=[[0,0.5],[1,0.5]];portConstraint=eastwest;" parent="poZoN8kQUyQc4HhDRA4U-5" vertex="1">
          <mxGeometry y="104" width="370" height="26" as="geometry" />
        </mxCell>
        <mxCell id="poZoN8kQUyQc4HhDRA4U-14" value="" style="line;html=1;strokeWidth=1;align=left;verticalAlign=middle;spacingTop=-1;spacingLeft=3;spacingRight=3;rotatable=0;labelPosition=right;points=[];portConstraint=eastwest;" parent="poZoN8kQUyQc4HhDRA4U-5" vertex="1">
          <mxGeometry y="130" width="370" height="8" as="geometry" />
        </mxCell>
        <mxCell id="poZoN8kQUyQc4HhDRA4U-15" value="+ ResourcePool(void) : Constructor" style="text;align=left;verticalAlign=top;spacingLeft=4;spacingRight=4;overflow=hidden;rotatable=0;points=[[0,0.5],[1,0.5]];portConstraint=eastwest;" parent="poZoN8kQUyQc4HhDRA4U-5" vertex="1">
          <mxGeometry y="138" width="370" height="28" as="geometry" />
        </mxCell>
        <mxCell id="poZoN8kQUyQc4HhDRA4U-16" value="+ ~ResourcePool(void) : Destructor" style="text;align=left;verticalAlign=top;spacingLeft=4;spacingRight=4;overflow=hidden;rotatable=0;points=[[0,0.5],[1,0.5]];portConstraint=eastwest;" parent="poZoN8kQUyQc4HhDRA4U-5" vertex="1">
          <mxGeometry y="166" width="370" height="26" as="geometry" />
        </mxCell>
        <mxCell id="poZoN8kQUyQc4HhDRA4U-18" value="+ getModel(modelPath : std::string) : &amp;raylib::Model" style="text;align=left;verticalAlign=top;spacingLeft=4;spacingRight=4;overflow=hidden;rotatable=0;points=[[0,0.5],[1,0.5]];portConstraint=eastwest;" parent="poZoN8kQUyQc4HhDRA4U-5" vertex="1">
          <mxGeometry y="192" width="370" height="26" as="geometry" />
        </mxCell>
        <mxCell id="poZoN8kQUyQc4HhDRA4U-20" value="+ getTexture(texturePath : std::string) : &amp;raylib::Texture" style="text;align=left;verticalAlign=top;spacingLeft=4;spacingRight=4;overflow=hidden;rotatable=0;points=[[0,0.5],[1,0.5]];portConstraint=eastwest;" parent="poZoN8kQUyQc4HhDRA4U-5" vertex="1">
          <mxGeometry y="218" width="370" height="26" as="geometry" />
        </mxCell>
        <mxCell id="poZoN8kQUyQc4HhDRA4U-19" value="+ addModel(modelPath : const std::string) : void" style="text;align=left;verticalAlign=top;spacingLeft=4;spacingRight=4;overflow=hidden;rotatable=0;points=[[0,0.5],[1,0.5]];portConstraint=eastwest;" parent="poZoN8kQUyQc4HhDRA4U-5" vertex="1">
          <mxGeometry y="244" width="370" height="26" as="geometry" />
        </mxCell>
        <mxCell id="poZoN8kQUyQc4HhDRA4U-21" value="+ addTexture(texturePath : const std::string) : void" style="text;align=left;verticalAlign=top;spacingLeft=4;spacingRight=4;overflow=hidden;rotatable=0;points=[[0,0.5],[1,0.5]];portConstraint=eastwest;" parent="poZoN8kQUyQc4HhDRA4U-5" vertex="1">
          <mxGeometry y="270" width="370" height="26" as="geometry" />
        </mxCell>
        <mxCell id="poZoN8kQUyQc4HhDRA4U-22" value="+ unloadAll(void) : void" style="text;align=left;verticalAlign=top;spacingLeft=4;spacingRight=4;overflow=hidden;rotatable=0;points=[[0,0.5],[1,0.5]];portConstraint=eastwest;" parent="poZoN8kQUyQc4HhDRA4U-5" vertex="1">
          <mxGeometry y="296" width="370" height="26" as="geometry" />
        </mxCell>
        <mxCell id="poZoN8kQUyQc4HhDRA4U-23" value="Core" style="swimlane;fontStyle=2;align=center;verticalAlign=top;childLayout=stackLayout;horizontal=1;startSize=26;horizontalStack=0;resizeParent=1;resizeLast=0;collapsible=1;marginBottom=0;rounded=0;shadow=0;strokeWidth=1;" parent="WIyWlLk6GJQsqaUBKTNV-1" vertex="1">
          <mxGeometry x="537" y="-1000" width="470" height="580" as="geometry">
            <mxRectangle x="230" y="140" width="160" height="26" as="alternateBounds" />
          </mxGeometry>
        </mxCell>
        <mxCell id="poZoN8kQUyQc4HhDRA4U-24" value="- _componentManager : std::shared_ptr&lt;ComponentManager::ComponentManager" style="text;align=left;verticalAlign=top;spacingLeft=4;spacingRight=4;overflow=hidden;rotatable=0;points=[[0,0.5],[1,0.5]];portConstraint=eastwest;" parent="poZoN8kQUyQc4HhDRA4U-23" vertex="1">
          <mxGeometry y="26" width="470" height="26" as="geometry" />
        </mxCell>
        <mxCell id="poZoN8kQUyQc4HhDRA4U-25" value="- _entityManager : std::shared_ptr&lt;EntityManager::EntityManager&gt;" style="text;align=left;verticalAlign=top;spacingLeft=4;spacingRight=4;overflow=hidden;rotatable=0;points=[[0,0.5],[1,0.5]];portConstraint=eastwest;" parent="poZoN8kQUyQc4HhDRA4U-23" vertex="1">
          <mxGeometry y="52" width="470" height="26" as="geometry" />
        </mxCell>
        <mxCell id="poZoN8kQUyQc4HhDRA4U-26" value="- _systemManager : std::shared_ptr&lt;SystemManager::SystemManager&gt;" style="text;align=left;verticalAlign=top;spacingLeft=4;spacingRight=4;overflow=hidden;rotatable=0;points=[[0,0.5],[1,0.5]];portConstraint=eastwest;" parent="poZoN8kQUyQc4HhDRA4U-23" vertex="1">
          <mxGeometry y="78" width="470" height="26" as="geometry" />
        </mxCell>
        <mxCell id="poZoN8kQUyQc4HhDRA4U-28" value="" style="line;html=1;strokeWidth=1;align=left;verticalAlign=middle;spacingTop=-1;spacingLeft=3;spacingRight=3;rotatable=0;labelPosition=right;points=[];portConstraint=eastwest;" parent="poZoN8kQUyQc4HhDRA4U-23" vertex="1">
          <mxGeometry y="104" width="470" height="8" as="geometry" />
        </mxCell>
        <mxCell id="poZoN8kQUyQc4HhDRA4U-29" value="+ Core : Constructor" style="text;align=left;verticalAlign=top;spacingLeft=4;spacingRight=4;overflow=hidden;rotatable=0;points=[[0,0.5],[1,0.5]];portConstraint=eastwest;" parent="poZoN8kQUyQc4HhDRA4U-23" vertex="1">
          <mxGeometry y="112" width="470" height="28" as="geometry" />
        </mxCell>
        <mxCell id="poZoN8kQUyQc4HhDRA4U-30" value="+ ~Core : Destructor" style="text;align=left;verticalAlign=top;spacingLeft=4;spacingRight=4;overflow=hidden;rotatable=0;points=[[0,0.5],[1,0.5]];portConstraint=eastwest;" parent="poZoN8kQUyQc4HhDRA4U-23" vertex="1">
          <mxGeometry y="140" width="470" height="26" as="geometry" />
        </mxCell>
        <mxCell id="poZoN8kQUyQc4HhDRA4U-31" value="+ createEntity(void) : std::size_t" style="text;align=left;verticalAlign=top;spacingLeft=4;spacingRight=4;overflow=hidden;rotatable=0;points=[[0,0.5],[1,0.5]];portConstraint=eastwest;" parent="poZoN8kQUyQc4HhDRA4U-23" vertex="1">
          <mxGeometry y="166" width="470" height="26" as="geometry" />
        </mxCell>
        <mxCell id="poZoN8kQUyQc4HhDRA4U-32" value="+ destroyEntity(entity : std::size_t) : void" style="text;align=left;verticalAlign=top;spacingLeft=4;spacingRight=4;overflow=hidden;rotatable=0;points=[[0,0.5],[1,0.5]];portConstraint=eastwest;" parent="poZoN8kQUyQc4HhDRA4U-23" vertex="1">
          <mxGeometry y="192" width="470" height="26" as="geometry" />
        </mxCell>
        <mxCell id="poZoN8kQUyQc4HhDRA4U-33" value="+ getSignature(entity : std::size_t) : std::bitset&lt;32&gt;" style="text;align=left;verticalAlign=top;spacingLeft=4;spacingRight=4;overflow=hidden;rotatable=0;points=[[0,0.5],[1,0.5]];portConstraint=eastwest;" parent="poZoN8kQUyQc4HhDRA4U-23" vertex="1">
          <mxGeometry y="218" width="470" height="26" as="geometry" />
        </mxCell>
        <mxCell id="poZoN8kQUyQc4HhDRA4U-34" value="+ registerComponent&lt;T&gt;(void) : void" style="text;align=left;verticalAlign=top;spacingLeft=4;spacingRight=4;overflow=hidden;rotatable=0;points=[[0,0.5],[1,0.5]];portConstraint=eastwest;" parent="poZoN8kQUyQc4HhDRA4U-23" vertex="1">
          <mxGeometry y="244" width="470" height="26" as="geometry" />
        </mxCell>
        <mxCell id="poZoN8kQUyQc4HhDRA4U-35" value="+ getComponent&lt;T&gt;(entity : std::size_t) : &amp;T" style="text;align=left;verticalAlign=top;spacingLeft=4;spacingRight=4;overflow=hidden;rotatable=0;points=[[0,0.5],[1,0.5]];portConstraint=eastwest;" parent="poZoN8kQUyQc4HhDRA4U-23" vertex="1">
          <mxGeometry y="270" width="470" height="26" as="geometry" />
        </mxCell>
        <mxCell id="poZoN8kQUyQc4HhDRA4U-36" value="+ getComponents&lt;T&gt;(void) : ComponentManager::SparseArray&lt;T&gt;&amp;" style="text;align=left;verticalAlign=top;spacingLeft=4;spacingRight=4;overflow=hidden;rotatable=0;points=[[0,0.5],[1,0.5]];portConstraint=eastwest;" parent="poZoN8kQUyQc4HhDRA4U-23" vertex="1">
          <mxGeometry y="296" width="470" height="26" as="geometry" />
        </mxCell>
        <mxCell id="poZoN8kQUyQc4HhDRA4U-37" value="+ registerSystem&lt;T&gt;(void) : std::shared_ptr&lt;T&gt;" style="text;align=left;verticalAlign=top;spacingLeft=4;spacingRight=4;overflow=hidden;rotatable=0;points=[[0,0.5],[1,0.5]];portConstraint=eastwest;" parent="poZoN8kQUyQc4HhDRA4U-23" vertex="1">
          <mxGeometry y="322" width="470" height="26" as="geometry" />
        </mxCell>
        <mxCell id="poZoN8kQUyQc4HhDRA4U-38" value="+ addComponent&lt;T&gt;(entity, component : std::size_t, T) : void" style="text;align=left;verticalAlign=top;spacingLeft=4;spacingRight=4;overflow=hidden;rotatable=0;points=[[0,0.5],[1,0.5]];portConstraint=eastwest;" parent="poZoN8kQUyQc4HhDRA4U-23" vertex="1">
          <mxGeometry y="348" width="470" height="26" as="geometry" />
        </mxCell>
        <mxCell id="poZoN8kQUyQc4HhDRA4U-39" value="+ getEntitiesWithComponent&lt;... T&gt;(void) : std::vector&lt;std::size_t&gt;" style="text;align=left;verticalAlign=top;spacingLeft=4;spacingRight=4;overflow=hidden;rotatable=0;points=[[0,0.5],[1,0.5]];portConstraint=eastwest;" parent="poZoN8kQUyQc4HhDRA4U-23" vertex="1">
          <mxGeometry y="374" width="470" height="26" as="geometry" />
        </mxCell>
        <mxCell id="poZoN8kQUyQc4HhDRA4U-40" value="+ getEntitiesWithSignature(systemSignature : std::bitset&lt;32&gt;) &#xa;: std::vector&lt;std::size_t&gt;" style="text;align=left;verticalAlign=top;spacingLeft=4;spacingRight=4;overflow=hidden;rotatable=0;points=[[0,0.5],[1,0.5]];portConstraint=eastwest;" parent="poZoN8kQUyQc4HhDRA4U-23" vertex="1">
          <mxGeometry y="400" width="470" height="40" as="geometry" />
        </mxCell>
        <mxCell id="poZoN8kQUyQc4HhDRA4U-41" value="+ setSystemSignature(signature : std::bitset&lt;32&gt;) : void" style="text;align=left;verticalAlign=top;spacingLeft=4;spacingRight=4;overflow=hidden;rotatable=0;points=[[0,0.5],[1,0.5]];portConstraint=eastwest;" parent="poZoN8kQUyQc4HhDRA4U-23" vertex="1">
          <mxGeometry y="440" width="470" height="30" as="geometry" />
        </mxCell>
        <mxCell id="poZoN8kQUyQc4HhDRA4U-42" value="+ setEntitySignature(entity, signature : std::size_t, std::bitset&lt;32&gt;) : void" style="text;align=left;verticalAlign=top;spacingLeft=4;spacingRight=4;overflow=hidden;rotatable=0;points=[[0,0.5],[1,0.5]];portConstraint=eastwest;" parent="poZoN8kQUyQc4HhDRA4U-23" vertex="1">
          <mxGeometry y="470" width="470" height="30" as="geometry" />
        </mxCell>
        <mxCell id="poZoN8kQUyQc4HhDRA4U-43" value="+ getSystemSignature&lt;T&gt;(void) : std::bitset&lt;32&gt;" style="text;align=left;verticalAlign=top;spacingLeft=4;spacingRight=4;overflow=hidden;rotatable=0;points=[[0,0.5],[1,0.5]];portConstraint=eastwest;" parent="poZoN8kQUyQc4HhDRA4U-23" vertex="1">
          <mxGeometry y="500" width="470" height="30" as="geometry" />
        </mxCell>
        <mxCell id="poZoN8kQUyQc4HhDRA4U-44" value="+ getSystem&lt;T&gt;(void) : std::shared_ptr&lt;T&gt;" style="text;align=left;verticalAlign=top;spacingLeft=4;spacingRight=4;overflow=hidden;rotatable=0;points=[[0,0.5],[1,0.5]];portConstraint=eastwest;" parent="poZoN8kQUyQc4HhDRA4U-23" vertex="1">
          <mxGeometry y="530" width="470" height="30" as="geometry" />
        </mxCell>
        <mxCell id="poZoN8kQUyQc4HhDRA4U-45" value="Utils" style="swimlane;fontStyle=2;align=center;verticalAlign=top;childLayout=stackLayout;horizontal=1;startSize=26;horizontalStack=0;resizeParent=1;resizeLast=0;collapsible=1;marginBottom=0;rounded=0;shadow=0;strokeWidth=1;" parent="WIyWlLk6GJQsqaUBKTNV-1" vertex="1">
          <mxGeometry x="10" y="-380" width="330" height="130" as="geometry">
            <mxRectangle x="230" y="140" width="160" height="26" as="alternateBounds" />
          </mxGeometry>
        </mxCell>
        <mxCell id="poZoN8kQUyQc4HhDRA4U-54" value="" style="line;html=1;strokeWidth=1;align=left;verticalAlign=middle;spacingTop=-1;spacingLeft=3;spacingRight=3;rotatable=0;labelPosition=right;points=[];portConstraint=eastwest;" parent="poZoN8kQUyQc4HhDRA4U-45" vertex="1">
          <mxGeometry y="26" width="330" height="8" as="geometry" />
        </mxCell>
        <mxCell id="poZoN8kQUyQc4HhDRA4U-56" value="+ checkCollision(&amp;posA, &amp;hitboxA, &amp;posB, &amp;hitboxB&#xa;: ECS::Components::Position, ECS::Components::Hitbox,&#xa;ECS::Components::Position, ECS::Components::Hitbox) :&#xa;static bool" style="text;align=left;verticalAlign=top;spacingLeft=4;spacingRight=4;overflow=hidden;rotatable=0;points=[[0,0.5],[1,0.5]];portConstraint=eastwest;" parent="poZoN8kQUyQc4HhDRA4U-45" vertex="1">
          <mxGeometry y="34" width="330" height="76" as="geometry" />
        </mxCell>
        <mxCell id="poZoN8kQUyQc4HhDRA4U-58" value="System" style="swimlane;fontStyle=2;align=center;verticalAlign=top;childLayout=stackLayout;horizontal=1;startSize=26;horizontalStack=0;resizeParent=1;resizeLast=0;collapsible=1;marginBottom=0;rounded=0;shadow=0;strokeWidth=1;" parent="WIyWlLk6GJQsqaUBKTNV-1" vertex="1">
          <mxGeometry x="2710" y="-1160" width="250" height="340" as="geometry">
            <mxRectangle x="230" y="140" width="160" height="26" as="alternateBounds" />
          </mxGeometry>
        </mxCell>
        <mxCell id="poZoN8kQUyQc4HhDRA4U-59" value="+ _entities : std::set&lt;std::size_t&gt;" style="text;align=left;verticalAlign=top;spacingLeft=4;spacingRight=4;overflow=hidden;rotatable=0;points=[[0,0.5],[1,0.5]];portConstraint=eastwest;" parent="poZoN8kQUyQc4HhDRA4U-58" vertex="1">
          <mxGeometry y="26" width="250" height="26" as="geometry" />
        </mxCell>
        <mxCell id="poZoN8kQUyQc4HhDRA4U-62" value="" style="line;html=1;strokeWidth=1;align=left;verticalAlign=middle;spacingTop=-1;spacingLeft=3;spacingRight=3;rotatable=0;labelPosition=right;points=[];portConstraint=eastwest;" parent="poZoN8kQUyQc4HhDRA4U-58" vertex="1">
          <mxGeometry y="52" width="250" height="8" as="geometry" />
        </mxCell>
        <mxCell id="poZoN8kQUyQc4HhDRA4U-69" value="EntityManager" style="swimlane;fontStyle=2;align=center;verticalAlign=top;childLayout=stackLayout;horizontal=1;startSize=26;horizontalStack=0;resizeParent=1;resizeLast=0;collapsible=1;marginBottom=0;rounded=0;shadow=0;strokeWidth=1;" parent="WIyWlLk6GJQsqaUBKTNV-1" vertex="1">
          <mxGeometry x="1150" y="-1020" width="380" height="310" as="geometry">
            <mxRectangle x="230" y="140" width="160" height="26" as="alternateBounds" />
          </mxGeometry>
        </mxCell>
        <mxCell id="poZoN8kQUyQc4HhDRA4U-70" value="- _mAvailableEntities : raylib::Color" style="text;align=left;verticalAlign=top;spacingLeft=4;spacingRight=4;overflow=hidden;rotatable=0;points=[[0,0.5],[1,0.5]];portConstraint=eastwest;" parent="poZoN8kQUyQc4HhDRA4U-69" vertex="1">
          <mxGeometry y="26" width="380" height="26" as="geometry" />
        </mxCell>
        <mxCell id="poZoN8kQUyQc4HhDRA4U-71" value="- _mSignatures : std::array&lt;std::bitset&lt;32&gt;, 10000&gt;" style="text;align=left;verticalAlign=top;spacingLeft=4;spacingRight=4;overflow=hidden;rotatable=0;points=[[0,0.5],[1,0.5]];portConstraint=eastwest;" parent="poZoN8kQUyQc4HhDRA4U-69" vertex="1">
          <mxGeometry y="52" width="380" height="26" as="geometry" />
        </mxCell>
        <mxCell id="poZoN8kQUyQc4HhDRA4U-81" value="- _mLivingEntityCount : std::size_t" style="text;align=left;verticalAlign=top;spacingLeft=4;spacingRight=4;overflow=hidden;rotatable=0;points=[[0,0.5],[1,0.5]];portConstraint=eastwest;" parent="poZoN8kQUyQc4HhDRA4U-69" vertex="1">
          <mxGeometry y="78" width="380" height="26" as="geometry" />
        </mxCell>
        <mxCell id="poZoN8kQUyQc4HhDRA4U-72" value="" style="line;html=1;strokeWidth=1;align=left;verticalAlign=middle;spacingTop=-1;spacingLeft=3;spacingRight=3;rotatable=0;labelPosition=right;points=[];portConstraint=eastwest;" parent="poZoN8kQUyQc4HhDRA4U-69" vertex="1">
          <mxGeometry y="104" width="380" height="8" as="geometry" />
        </mxCell>
        <mxCell id="poZoN8kQUyQc4HhDRA4U-73" value="+ EntityManager : Constructor" style="text;align=left;verticalAlign=top;spacingLeft=4;spacingRight=4;overflow=hidden;rotatable=0;points=[[0,0.5],[1,0.5]];portConstraint=eastwest;" parent="poZoN8kQUyQc4HhDRA4U-69" vertex="1">
          <mxGeometry y="112" width="380" height="26" as="geometry" />
        </mxCell>
        <mxCell id="poZoN8kQUyQc4HhDRA4U-82" value="+ ~EntityManager : Destructor" style="text;align=left;verticalAlign=top;spacingLeft=4;spacingRight=4;overflow=hidden;rotatable=0;points=[[0,0.5],[1,0.5]];portConstraint=eastwest;" parent="poZoN8kQUyQc4HhDRA4U-69" vertex="1">
          <mxGeometry y="138" width="380" height="26" as="geometry" />
        </mxCell>
        <mxCell id="poZoN8kQUyQc4HhDRA4U-83" value="+ createEntity(void) : std::size_t" style="text;align=left;verticalAlign=top;spacingLeft=4;spacingRight=4;overflow=hidden;rotatable=0;points=[[0,0.5],[1,0.5]];portConstraint=eastwest;" parent="poZoN8kQUyQc4HhDRA4U-69" vertex="1">
          <mxGeometry y="164" width="380" height="26" as="geometry" />
        </mxCell>
        <mxCell id="poZoN8kQUyQc4HhDRA4U-84" value="+ destroyEntity(entity : std::size_t) : void" style="text;align=left;verticalAlign=top;spacingLeft=4;spacingRight=4;overflow=hidden;rotatable=0;points=[[0,0.5],[1,0.5]];portConstraint=eastwest;" parent="poZoN8kQUyQc4HhDRA4U-69" vertex="1">
          <mxGeometry y="190" width="380" height="26" as="geometry" />
        </mxCell>
        <mxCell id="poZoN8kQUyQc4HhDRA4U-85" value="+ setSignature(entity, signature : std::size_t, std::bitset&lt;32&gt;) : void" style="text;align=left;verticalAlign=top;spacingLeft=4;spacingRight=4;overflow=hidden;rotatable=0;points=[[0,0.5],[1,0.5]];portConstraint=eastwest;" parent="poZoN8kQUyQc4HhDRA4U-69" vertex="1">
          <mxGeometry y="216" width="380" height="26" as="geometry" />
        </mxCell>
        <mxCell id="poZoN8kQUyQc4HhDRA4U-86" value="+ getSignature(entity : std::size_t) : std::bitset&lt;32&gt;" style="text;align=left;verticalAlign=top;spacingLeft=4;spacingRight=4;overflow=hidden;rotatable=0;points=[[0,0.5],[1,0.5]];portConstraint=eastwest;" parent="poZoN8kQUyQc4HhDRA4U-69" vertex="1">
          <mxGeometry y="242" width="380" height="26" as="geometry" />
        </mxCell>
        <mxCell id="poZoN8kQUyQc4HhDRA4U-87" value="+ getEntities(void) : std::vector&lt;std::size_t&gt;" style="text;align=left;verticalAlign=top;spacingLeft=4;spacingRight=4;overflow=hidden;rotatable=0;points=[[0,0.5],[1,0.5]];portConstraint=eastwest;" parent="poZoN8kQUyQc4HhDRA4U-69" vertex="1">
          <mxGeometry y="268" width="380" height="26" as="geometry" />
        </mxCell>
        <mxCell id="poZoN8kQUyQc4HhDRA4U-88" value="SystemManager" style="swimlane;fontStyle=2;align=center;verticalAlign=top;childLayout=stackLayout;horizontal=1;startSize=26;horizontalStack=0;resizeParent=1;resizeLast=0;collapsible=1;marginBottom=0;rounded=0;shadow=0;strokeWidth=1;" parent="WIyWlLk6GJQsqaUBKTNV-1" vertex="1">
          <mxGeometry x="1140" y="-640" width="460" height="280" as="geometry">
            <mxRectangle x="230" y="140" width="160" height="26" as="alternateBounds" />
          </mxGeometry>
        </mxCell>
        <mxCell id="poZoN8kQUyQc4HhDRA4U-89" value="- _mSignatures : std::unordered_map&lt;std::string, std::bitset&lt;32&gt;" style="text;align=left;verticalAlign=top;spacingLeft=4;spacingRight=4;overflow=hidden;rotatable=0;points=[[0,0.5],[1,0.5]];portConstraint=eastwest;" parent="poZoN8kQUyQc4HhDRA4U-88" vertex="1">
          <mxGeometry y="26" width="460" height="26" as="geometry" />
        </mxCell>
        <mxCell id="poZoN8kQUyQc4HhDRA4U-90" value="- _mSystems : std::unordered_map&lt;std::string, std::shared_ptr&lt;Systems::System&gt; &gt;" style="text;align=left;verticalAlign=top;spacingLeft=4;spacingRight=4;overflow=hidden;rotatable=0;points=[[0,0.5],[1,0.5]];portConstraint=eastwest;" parent="poZoN8kQUyQc4HhDRA4U-88" vertex="1">
          <mxGeometry y="52" width="460" height="26" as="geometry" />
        </mxCell>
        <mxCell id="poZoN8kQUyQc4HhDRA4U-92" value="" style="line;html=1;strokeWidth=1;align=left;verticalAlign=middle;spacingTop=-1;spacingLeft=3;spacingRight=3;rotatable=0;labelPosition=right;points=[];portConstraint=eastwest;" parent="poZoN8kQUyQc4HhDRA4U-88" vertex="1">
          <mxGeometry y="78" width="460" height="8" as="geometry" />
        </mxCell>
        <mxCell id="poZoN8kQUyQc4HhDRA4U-95" value="+ registerSystem&lt;T&gt;(void) : std::shared_ptr&lt;T&gt;" style="text;align=left;verticalAlign=top;spacingLeft=4;spacingRight=4;overflow=hidden;rotatable=0;points=[[0,0.5],[1,0.5]];portConstraint=eastwest;" parent="poZoN8kQUyQc4HhDRA4U-88" vertex="1">
          <mxGeometry y="86" width="460" height="26" as="geometry" />
        </mxCell>
        <mxCell id="poZoN8kQUyQc4HhDRA4U-96" value="+ setSignature&lt;T&gt;(signature : std::bitset&lt;32&gt;) : void" style="text;align=left;verticalAlign=top;spacingLeft=4;spacingRight=4;overflow=hidden;rotatable=0;points=[[0,0.5],[1,0.5]];portConstraint=eastwest;" parent="poZoN8kQUyQc4HhDRA4U-88" vertex="1">
          <mxGeometry y="112" width="460" height="26" as="geometry" />
        </mxCell>
        <mxCell id="poZoN8kQUyQc4HhDRA4U-97" value="+ entityDestroyed(entity : std::size_t) : void" style="text;align=left;verticalAlign=top;spacingLeft=4;spacingRight=4;overflow=hidden;rotatable=0;points=[[0,0.5],[1,0.5]];portConstraint=eastwest;" parent="poZoN8kQUyQc4HhDRA4U-88" vertex="1">
          <mxGeometry y="138" width="460" height="26" as="geometry" />
        </mxCell>
        <mxCell id="poZoN8kQUyQc4HhDRA4U-98" value="+ entitySignatureChanged(entity, entitySignature : std::size_t, std::bitset&lt;32&gt;) : void" style="text;align=left;verticalAlign=top;spacingLeft=4;spacingRight=4;overflow=hidden;rotatable=0;points=[[0,0.5],[1,0.5]];portConstraint=eastwest;" parent="poZoN8kQUyQc4HhDRA4U-88" vertex="1">
          <mxGeometry y="164" width="460" height="26" as="geometry" />
        </mxCell>
        <mxCell id="poZoN8kQUyQc4HhDRA4U-99" value="+ getSignature&lt;T&gt;(void) : std::bitset&lt;32&gt;" style="text;align=left;verticalAlign=top;spacingLeft=4;spacingRight=4;overflow=hidden;rotatable=0;points=[[0,0.5],[1,0.5]];portConstraint=eastwest;" parent="poZoN8kQUyQc4HhDRA4U-88" vertex="1">
          <mxGeometry y="190" width="460" height="26" as="geometry" />
        </mxCell>
        <mxCell id="poZoN8kQUyQc4HhDRA4U-100" value="+ getSystem&lt;T&gt;(void) : std::shared_ptr&lt;T&gt;" style="text;align=left;verticalAlign=top;spacingLeft=4;spacingRight=4;overflow=hidden;rotatable=0;points=[[0,0.5],[1,0.5]];portConstraint=eastwest;" parent="poZoN8kQUyQc4HhDRA4U-88" vertex="1">
          <mxGeometry y="216" width="460" height="26" as="geometry" />
        </mxCell>
        <mxCell id="poZoN8kQUyQc4HhDRA4U-101" value="ComponentManager" style="swimlane;fontStyle=2;align=center;verticalAlign=top;childLayout=stackLayout;horizontal=1;startSize=26;horizontalStack=0;resizeParent=1;resizeLast=0;collapsible=1;marginBottom=0;rounded=0;shadow=0;strokeWidth=1;" parent="WIyWlLk6GJQsqaUBKTNV-1" vertex="1">
          <mxGeometry x="1220" y="-280" width="400" height="160" as="geometry">
            <mxRectangle x="230" y="140" width="160" height="26" as="alternateBounds" />
          </mxGeometry>
        </mxCell>
        <mxCell id="poZoN8kQUyQc4HhDRA4U-102" value="- _sparseArrays : std::unordered_map&lt;std::type_index, std::any&gt;" style="text;align=left;verticalAlign=top;spacingLeft=4;spacingRight=4;overflow=hidden;rotatable=0;points=[[0,0.5],[1,0.5]];portConstraint=eastwest;" parent="poZoN8kQUyQc4HhDRA4U-101" vertex="1">
          <mxGeometry y="26" width="400" height="26" as="geometry" />
        </mxCell>
        <mxCell id="poZoN8kQUyQc4HhDRA4U-105" value="" style="line;html=1;strokeWidth=1;align=left;verticalAlign=middle;spacingTop=-1;spacingLeft=3;spacingRight=3;rotatable=0;labelPosition=right;points=[];portConstraint=eastwest;" parent="poZoN8kQUyQc4HhDRA4U-101" vertex="1">
          <mxGeometry y="52" width="400" height="8" as="geometry" />
        </mxCell>
        <mxCell id="poZoN8kQUyQc4HhDRA4U-106" value="+ registerComponent&lt;Component&gt;(void) : SparseArray&lt;Component&gt;&amp;" style="text;align=left;verticalAlign=top;spacingLeft=4;spacingRight=4;overflow=hidden;rotatable=0;points=[[0,0.5],[1,0.5]];portConstraint=eastwest;" parent="poZoN8kQUyQc4HhDRA4U-101" vertex="1">
          <mxGeometry y="60" width="400" height="26" as="geometry" />
        </mxCell>
        <mxCell id="poZoN8kQUyQc4HhDRA4U-107" value="+ getComponents&lt;Component&gt;(void) : SparseArray&lt;Component&gt; &amp;" style="text;align=left;verticalAlign=top;spacingLeft=4;spacingRight=4;overflow=hidden;rotatable=0;points=[[0,0.5],[1,0.5]];portConstraint=eastwest;" parent="poZoN8kQUyQc4HhDRA4U-101" vertex="1">
          <mxGeometry y="86" width="400" height="26" as="geometry" />
        </mxCell>
        <mxCell id="poZoN8kQUyQc4HhDRA4U-108" value="+ getComponents(void) : SparseArray&lt;Component&gt; const &amp;" style="text;align=left;verticalAlign=top;spacingLeft=4;spacingRight=4;overflow=hidden;rotatable=0;points=[[0,0.5],[1,0.5]];portConstraint=eastwest;" parent="poZoN8kQUyQc4HhDRA4U-101" vertex="1">
          <mxGeometry y="112" width="400" height="26" as="geometry" />
        </mxCell>
        <mxCell id="jB-Xp0p8wetHSDOnZMpT-0" value="ComponentTypeRegistry" style="swimlane;fontStyle=2;align=center;verticalAlign=top;childLayout=stackLayout;horizontal=1;startSize=26;horizontalStack=0;resizeParent=1;resizeLast=0;collapsible=1;marginBottom=0;rounded=0;shadow=0;strokeWidth=1;" parent="WIyWlLk6GJQsqaUBKTNV-1" vertex="1">
          <mxGeometry x="1275" y="-60" width="290" height="100" as="geometry">
            <mxRectangle x="230" y="140" width="160" height="26" as="alternateBounds" />
          </mxGeometry>
        </mxCell>
        <mxCell id="jB-Xp0p8wetHSDOnZMpT-1" value="- _nextTypeIndex : static std::size_t" style="text;align=left;verticalAlign=top;spacingLeft=4;spacingRight=4;overflow=hidden;rotatable=0;points=[[0,0.5],[1,0.5]];portConstraint=eastwest;" parent="jB-Xp0p8wetHSDOnZMpT-0" vertex="1">
          <mxGeometry y="26" width="290" height="26" as="geometry" />
        </mxCell>
        <mxCell id="jB-Xp0p8wetHSDOnZMpT-2" value="" style="line;html=1;strokeWidth=1;align=left;verticalAlign=middle;spacingTop=-1;spacingLeft=3;spacingRight=3;rotatable=0;labelPosition=right;points=[];portConstraint=eastwest;" parent="jB-Xp0p8wetHSDOnZMpT-0" vertex="1">
          <mxGeometry y="52" width="290" height="8" as="geometry" />
        </mxCell>
        <mxCell id="jB-Xp0p8wetHSDOnZMpT-3" value="+ getTypeId&lt;Component&gt;(void) : static std::size_t" style="text;align=left;verticalAlign=top;spacingLeft=4;spacingRight=4;overflow=hidden;rotatable=0;points=[[0,0.5],[1,0.5]];portConstraint=eastwest;" parent="jB-Xp0p8wetHSDOnZMpT-0" vertex="1">
          <mxGeometry y="60" width="290" height="26" as="geometry" />
        </mxCell>
        <mxCell id="jB-Xp0p8wetHSDOnZMpT-6" value="SparseArray" style="swimlane;fontStyle=2;align=center;verticalAlign=top;childLayout=stackLayout;horizontal=1;startSize=26;horizontalStack=0;resizeParent=1;resizeLast=0;collapsible=1;marginBottom=0;rounded=0;shadow=0;strokeWidth=1;" parent="WIyWlLk6GJQsqaUBKTNV-1" vertex="1">
          <mxGeometry x="1640" y="-1020" width="460" height="850" as="geometry">
            <mxRectangle x="230" y="140" width="160" height="26" as="alternateBounds" />
          </mxGeometry>
        </mxCell>
        <mxCell id="jB-Xp0p8wetHSDOnZMpT-8" value="- value_type : std::optional&lt;Component&gt;" style="text;align=left;verticalAlign=top;spacingLeft=4;spacingRight=4;overflow=hidden;rotatable=0;points=[[0,0.5],[1,0.5]];portConstraint=eastwest;" parent="jB-Xp0p8wetHSDOnZMpT-6" vertex="1">
          <mxGeometry y="26" width="460" height="26" as="geometry" />
        </mxCell>
        <mxCell id="jB-Xp0p8wetHSDOnZMpT-22" value="- reference_type : value_type &amp;" style="text;align=left;verticalAlign=top;spacingLeft=4;spacingRight=4;overflow=hidden;rotatable=0;points=[[0,0.5],[1,0.5]];portConstraint=eastwest;" parent="jB-Xp0p8wetHSDOnZMpT-6" vertex="1">
          <mxGeometry y="52" width="460" height="26" as="geometry" />
        </mxCell>
        <mxCell id="jB-Xp0p8wetHSDOnZMpT-23" value="- const_reference_type : value_type const &amp;" style="text;align=left;verticalAlign=top;spacingLeft=4;spacingRight=4;overflow=hidden;rotatable=0;points=[[0,0.5],[1,0.5]];portConstraint=eastwest;" parent="jB-Xp0p8wetHSDOnZMpT-6" vertex="1">
          <mxGeometry y="78" width="460" height="26" as="geometry" />
        </mxCell>
        <mxCell id="jB-Xp0p8wetHSDOnZMpT-24" value="- container_t : std::vector&lt;value_type&gt;" style="text;align=left;verticalAlign=top;spacingLeft=4;spacingRight=4;overflow=hidden;rotatable=0;points=[[0,0.5],[1,0.5]];portConstraint=eastwest;" parent="jB-Xp0p8wetHSDOnZMpT-6" vertex="1">
          <mxGeometry y="104" width="460" height="26" as="geometry" />
        </mxCell>
        <mxCell id="jB-Xp0p8wetHSDOnZMpT-25" value="- size_type : typename container_t::size_type" style="text;align=left;verticalAlign=top;spacingLeft=4;spacingRight=4;overflow=hidden;rotatable=0;points=[[0,0.5],[1,0.5]];portConstraint=eastwest;" parent="jB-Xp0p8wetHSDOnZMpT-6" vertex="1">
          <mxGeometry y="130" width="460" height="26" as="geometry" />
        </mxCell>
        <mxCell id="jB-Xp0p8wetHSDOnZMpT-26" value="- iterator : typename container_t::iterator" style="text;align=left;verticalAlign=top;spacingLeft=4;spacingRight=4;overflow=hidden;rotatable=0;points=[[0,0.5],[1,0.5]];portConstraint=eastwest;" parent="jB-Xp0p8wetHSDOnZMpT-6" vertex="1">
          <mxGeometry y="156" width="460" height="26" as="geometry" />
        </mxCell>
        <mxCell id="jB-Xp0p8wetHSDOnZMpT-27" value="- const_iterator : typename container_t::const_iterator" style="text;align=left;verticalAlign=top;spacingLeft=4;spacingRight=4;overflow=hidden;rotatable=0;points=[[0,0.5],[1,0.5]];portConstraint=eastwest;" parent="jB-Xp0p8wetHSDOnZMpT-6" vertex="1">
          <mxGeometry y="182" width="460" height="26" as="geometry" />
        </mxCell>
        <mxCell id="jB-Xp0p8wetHSDOnZMpT-43" value="- _data : container_t" style="text;align=left;verticalAlign=top;spacingLeft=4;spacingRight=4;overflow=hidden;rotatable=0;points=[[0,0.5],[1,0.5]];portConstraint=eastwest;" parent="jB-Xp0p8wetHSDOnZMpT-6" vertex="1">
          <mxGeometry y="208" width="460" height="26" as="geometry" />
        </mxCell>
        <mxCell id="jB-Xp0p8wetHSDOnZMpT-9" value="" style="line;html=1;strokeWidth=1;align=left;verticalAlign=middle;spacingTop=-1;spacingLeft=3;spacingRight=3;rotatable=0;labelPosition=right;points=[];portConstraint=eastwest;" parent="jB-Xp0p8wetHSDOnZMpT-6" vertex="1">
          <mxGeometry y="234" width="460" height="8" as="geometry" />
        </mxCell>
        <mxCell id="jB-Xp0p8wetHSDOnZMpT-10" value="+ SparseArray : Constructor" style="text;align=left;verticalAlign=top;spacingLeft=4;spacingRight=4;overflow=hidden;rotatable=0;points=[[0,0.5],[1,0.5]];portConstraint=eastwest;" parent="jB-Xp0p8wetHSDOnZMpT-6" vertex="1">
          <mxGeometry y="242" width="460" height="26" as="geometry" />
        </mxCell>
        <mxCell id="jB-Xp0p8wetHSDOnZMpT-16" value="+ SparseArray(other : SparseArray const &amp;) : Constructor" style="text;align=left;verticalAlign=top;spacingLeft=4;spacingRight=4;overflow=hidden;rotatable=0;points=[[0,0.5],[1,0.5]];portConstraint=eastwest;" parent="jB-Xp0p8wetHSDOnZMpT-6" vertex="1">
          <mxGeometry y="268" width="460" height="26" as="geometry" />
        </mxCell>
        <mxCell id="jB-Xp0p8wetHSDOnZMpT-17" value="+ SparseArray(other : SparseArray &amp;&amp;) noexcept : Constructor" style="text;align=left;verticalAlign=top;spacingLeft=4;spacingRight=4;overflow=hidden;rotatable=0;points=[[0,0.5],[1,0.5]];portConstraint=eastwest;" parent="jB-Xp0p8wetHSDOnZMpT-6" vertex="1">
          <mxGeometry y="294" width="460" height="26" as="geometry" />
        </mxCell>
        <mxCell id="jB-Xp0p8wetHSDOnZMpT-18" value="+ ~SparseArray : Destructor" style="text;align=left;verticalAlign=top;spacingLeft=4;spacingRight=4;overflow=hidden;rotatable=0;points=[[0,0.5],[1,0.5]];portConstraint=eastwest;" parent="jB-Xp0p8wetHSDOnZMpT-6" vertex="1">
          <mxGeometry y="320" width="460" height="26" as="geometry" />
        </mxCell>
        <mxCell id="jB-Xp0p8wetHSDOnZMpT-20" value="+ operator=(other: const SparseArray &amp;) : SparseArray &amp;" style="text;align=left;verticalAlign=top;spacingLeft=4;spacingRight=4;overflow=hidden;rotatable=0;points=[[0,0.5],[1,0.5]];portConstraint=eastwest;" parent="jB-Xp0p8wetHSDOnZMpT-6" vertex="1">
          <mxGeometry y="346" width="460" height="26" as="geometry" />
        </mxCell>
        <mxCell id="jB-Xp0p8wetHSDOnZMpT-19" value="+ operator=(other: SparseArray &amp;&amp;) : SparseArray &amp;" style="text;align=left;verticalAlign=top;spacingLeft=4;spacingRight=4;overflow=hidden;rotatable=0;points=[[0,0.5],[1,0.5]];portConstraint=eastwest;" parent="jB-Xp0p8wetHSDOnZMpT-6" vertex="1">
          <mxGeometry y="372" width="460" height="26" as="geometry" />
        </mxCell>
        <mxCell id="jB-Xp0p8wetHSDOnZMpT-21" value="+ operator[](idx : std::size_t) : reference_type" style="text;align=left;verticalAlign=top;spacingLeft=4;spacingRight=4;overflow=hidden;rotatable=0;points=[[0,0.5],[1,0.5]];portConstraint=eastwest;" parent="jB-Xp0p8wetHSDOnZMpT-6" vertex="1">
          <mxGeometry y="398" width="460" height="28" as="geometry" />
        </mxCell>
        <mxCell id="jB-Xp0p8wetHSDOnZMpT-29" value="+ operator[](idx : std::size_t) : const_reference_type" style="text;align=left;verticalAlign=top;spacingLeft=4;spacingRight=4;overflow=hidden;rotatable=0;points=[[0,0.5],[1,0.5]];portConstraint=eastwest;" parent="jB-Xp0p8wetHSDOnZMpT-6" vertex="1">
          <mxGeometry y="426" width="460" height="28" as="geometry" />
        </mxCell>
        <mxCell id="jB-Xp0p8wetHSDOnZMpT-30" value="+ begin(void) : iterator" style="text;align=left;verticalAlign=top;spacingLeft=4;spacingRight=4;overflow=hidden;rotatable=0;points=[[0,0.5],[1,0.5]];portConstraint=eastwest;" parent="jB-Xp0p8wetHSDOnZMpT-6" vertex="1">
          <mxGeometry y="454" width="460" height="28" as="geometry" />
        </mxCell>
        <mxCell id="jB-Xp0p8wetHSDOnZMpT-31" value="+ begin(void) : const_iterator" style="text;align=left;verticalAlign=top;spacingLeft=4;spacingRight=4;overflow=hidden;rotatable=0;points=[[0,0.5],[1,0.5]];portConstraint=eastwest;" parent="jB-Xp0p8wetHSDOnZMpT-6" vertex="1">
          <mxGeometry y="482" width="460" height="28" as="geometry" />
        </mxCell>
        <mxCell id="jB-Xp0p8wetHSDOnZMpT-32" value="+ cbegin(void) : const_iterator" style="text;align=left;verticalAlign=top;spacingLeft=4;spacingRight=4;overflow=hidden;rotatable=0;points=[[0,0.5],[1,0.5]];portConstraint=eastwest;" parent="jB-Xp0p8wetHSDOnZMpT-6" vertex="1">
          <mxGeometry y="510" width="460" height="28" as="geometry" />
        </mxCell>
        <mxCell id="jB-Xp0p8wetHSDOnZMpT-33" value="+ end(void) : iterator" style="text;align=left;verticalAlign=top;spacingLeft=4;spacingRight=4;overflow=hidden;rotatable=0;points=[[0,0.5],[1,0.5]];portConstraint=eastwest;" parent="jB-Xp0p8wetHSDOnZMpT-6" vertex="1">
          <mxGeometry y="538" width="460" height="28" as="geometry" />
        </mxCell>
        <mxCell id="jB-Xp0p8wetHSDOnZMpT-34" value="+ end(void) : const_iterator" style="text;align=left;verticalAlign=top;spacingLeft=4;spacingRight=4;overflow=hidden;rotatable=0;points=[[0,0.5],[1,0.5]];portConstraint=eastwest;" parent="jB-Xp0p8wetHSDOnZMpT-6" vertex="1">
          <mxGeometry y="566" width="460" height="28" as="geometry" />
        </mxCell>
        <mxCell id="jB-Xp0p8wetHSDOnZMpT-35" value="+ cend(void) : const_iterator" style="text;align=left;verticalAlign=top;spacingLeft=4;spacingRight=4;overflow=hidden;rotatable=0;points=[[0,0.5],[1,0.5]];portConstraint=eastwest;" parent="jB-Xp0p8wetHSDOnZMpT-6" vertex="1">
          <mxGeometry y="594" width="460" height="28" as="geometry" />
        </mxCell>
        <mxCell id="jB-Xp0p8wetHSDOnZMpT-36" value="+ size(void) : size_type" style="text;align=left;verticalAlign=top;spacingLeft=4;spacingRight=4;overflow=hidden;rotatable=0;points=[[0,0.5],[1,0.5]];portConstraint=eastwest;" parent="jB-Xp0p8wetHSDOnZMpT-6" vertex="1">
          <mxGeometry y="622" width="460" height="28" as="geometry" />
        </mxCell>
        <mxCell id="jB-Xp0p8wetHSDOnZMpT-37" value="+ insertAt(pos, component : size_type, Component const &amp;) : reference_type" style="text;align=left;verticalAlign=top;spacingLeft=4;spacingRight=4;overflow=hidden;rotatable=0;points=[[0,0.5],[1,0.5]];portConstraint=eastwest;" parent="jB-Xp0p8wetHSDOnZMpT-6" vertex="1">
          <mxGeometry y="650" width="460" height="28" as="geometry" />
        </mxCell>
        <mxCell id="jB-Xp0p8wetHSDOnZMpT-38" value="+ insertAt(pos, component : size_type, Component &amp;&amp;) : reference_type" style="text;align=left;verticalAlign=top;spacingLeft=4;spacingRight=4;overflow=hidden;rotatable=0;points=[[0,0.5],[1,0.5]];portConstraint=eastwest;" parent="jB-Xp0p8wetHSDOnZMpT-6" vertex="1">
          <mxGeometry y="678" width="460" height="28" as="geometry" />
        </mxCell>
        <mxCell id="jB-Xp0p8wetHSDOnZMpT-39" value="+ emplaceAt&lt;... Params&gt;(pos, args : size_type, Params ...&amp;&amp;) : reference_type" style="text;align=left;verticalAlign=top;spacingLeft=4;spacingRight=4;overflow=hidden;rotatable=0;points=[[0,0.5],[1,0.5]];portConstraint=eastwest;" parent="jB-Xp0p8wetHSDOnZMpT-6" vertex="1">
          <mxGeometry y="706" width="460" height="28" as="geometry" />
        </mxCell>
        <mxCell id="jB-Xp0p8wetHSDOnZMpT-40" value="+ erase(pos : std::size_t) : void" style="text;align=left;verticalAlign=top;spacingLeft=4;spacingRight=4;overflow=hidden;rotatable=0;points=[[0,0.5],[1,0.5]];portConstraint=eastwest;" parent="jB-Xp0p8wetHSDOnZMpT-6" vertex="1">
          <mxGeometry y="734" width="460" height="28" as="geometry" />
        </mxCell>
        <mxCell id="jB-Xp0p8wetHSDOnZMpT-41" value="+ getIndex(toSearch : value_type const &amp;) : size_type" style="text;align=left;verticalAlign=top;spacingLeft=4;spacingRight=4;overflow=hidden;rotatable=0;points=[[0,0.5],[1,0.5]];portConstraint=eastwest;" parent="jB-Xp0p8wetHSDOnZMpT-6" vertex="1">
          <mxGeometry y="762" width="460" height="28" as="geometry" />
        </mxCell>
        <mxCell id="jB-Xp0p8wetHSDOnZMpT-42" value="+ clear(void) : void" style="text;align=left;verticalAlign=top;spacingLeft=4;spacingRight=4;overflow=hidden;rotatable=0;points=[[0,0.5],[1,0.5]];portConstraint=eastwest;" parent="jB-Xp0p8wetHSDOnZMpT-6" vertex="1">
          <mxGeometry y="790" width="460" height="28" as="geometry" />
        </mxCell>
        <mxCell id="46qobdDRxBcM_sSUUL1y-44" style="edgeStyle=orthogonalEdgeStyle;rounded=0;orthogonalLoop=1;jettySize=auto;html=1;" edge="1" parent="WIyWlLk6GJQsqaUBKTNV-1" source="46qobdDRxBcM_sSUUL1y-0">
          <mxGeometry relative="1" as="geometry">
            <mxPoint x="2710" y="-1055" as="targetPoint" />
          </mxGeometry>
        </mxCell>
        <mxCell id="46qobdDRxBcM_sSUUL1y-0" value="SystemVelocity" style="swimlane;fontStyle=2;align=center;verticalAlign=top;childLayout=stackLayout;horizontal=1;startSize=26;horizontalStack=0;resizeParent=1;resizeLast=0;collapsible=1;marginBottom=0;rounded=0;shadow=0;strokeWidth=1;" vertex="1" parent="WIyWlLk6GJQsqaUBKTNV-1">
          <mxGeometry x="2210" y="-1155" width="400" height="200" as="geometry">
            <mxRectangle x="230" y="140" width="160" height="26" as="alternateBounds" />
          </mxGeometry>
        </mxCell>
        <mxCell id="46qobdDRxBcM_sSUUL1y-2" value="" style="line;html=1;strokeWidth=1;align=left;verticalAlign=middle;spacingTop=-1;spacingLeft=3;spacingRight=3;rotatable=0;labelPosition=right;points=[];portConstraint=eastwest;" vertex="1" parent="46qobdDRxBcM_sSUUL1y-0">
          <mxGeometry y="26" width="400" height="8" as="geometry" />
        </mxCell>
        <mxCell id="46qobdDRxBcM_sSUUL1y-41" value="+ SystemVelocity : Constructor " style="text;align=left;verticalAlign=top;spacingLeft=4;spacingRight=4;overflow=hidden;rotatable=0;points=[[0,0.5],[1,0.5]];portConstraint=eastwest;" vertex="1" parent="46qobdDRxBcM_sSUUL1y-0">
          <mxGeometry y="34" width="400" height="26" as="geometry" />
        </mxCell>
        <mxCell id="46qobdDRxBcM_sSUUL1y-42" value="+ ~SystemVelocity : Constructor " style="text;align=left;verticalAlign=top;spacingLeft=4;spacingRight=4;overflow=hidden;rotatable=0;points=[[0,0.5],[1,0.5]];portConstraint=eastwest;" vertex="1" parent="46qobdDRxBcM_sSUUL1y-0">
          <mxGeometry y="60" width="400" height="26" as="geometry" />
        </mxCell>
        <mxCell id="46qobdDRxBcM_sSUUL1y-43" value="+ update(positions, velocities, entities :&#xa;ECS::ComponentManager::SparseArray&lt;ECS::Components::Position&gt;,&#xa;ECS::ComponentManager::SparseArray&lt;ECS::Components::Velocity&gt;,&#xa;std::vector&lt;std::size_t&gt;) : void&#xa;&#xa;" style="text;align=left;verticalAlign=top;spacingLeft=4;spacingRight=4;overflow=hidden;rotatable=0;points=[[0,0.5],[1,0.5]];portConstraint=eastwest;" vertex="1" parent="46qobdDRxBcM_sSUUL1y-0">
          <mxGeometry y="86" width="400" height="74" as="geometry" />
        </mxCell>
        <mxCell id="46qobdDRxBcM_sSUUL1y-36" style="edgeStyle=orthogonalEdgeStyle;rounded=0;orthogonalLoop=1;jettySize=auto;html=1;" edge="1" parent="WIyWlLk6GJQsqaUBKTNV-1" source="46qobdDRxBcM_sSUUL1y-4">
          <mxGeometry relative="1" as="geometry">
            <mxPoint x="2960" y="-1055" as="targetPoint" />
          </mxGeometry>
        </mxCell>
        <mxCell id="46qobdDRxBcM_sSUUL1y-4" value="SystemRender3D" style="swimlane;fontStyle=2;align=center;verticalAlign=top;childLayout=stackLayout;horizontal=1;startSize=26;horizontalStack=0;resizeParent=1;resizeLast=0;collapsible=1;marginBottom=0;rounded=0;shadow=0;strokeWidth=1;" vertex="1" parent="WIyWlLk6GJQsqaUBKTNV-1">
          <mxGeometry x="3050" y="-1140" width="400" height="170" as="geometry">
            <mxRectangle x="230" y="140" width="160" height="26" as="alternateBounds" />
          </mxGeometry>
        </mxCell>
        <mxCell id="46qobdDRxBcM_sSUUL1y-6" value="" style="line;html=1;strokeWidth=1;align=left;verticalAlign=middle;spacingTop=-1;spacingLeft=3;spacingRight=3;rotatable=0;labelPosition=right;points=[];portConstraint=eastwest;" vertex="1" parent="46qobdDRxBcM_sSUUL1y-4">
          <mxGeometry y="26" width="400" height="8" as="geometry" />
        </mxCell>
        <mxCell id="46qobdDRxBcM_sSUUL1y-45" value="+ SystemRender3D : Constructor" style="text;align=left;verticalAlign=top;spacingLeft=4;spacingRight=4;overflow=hidden;rotatable=0;points=[[0,0.5],[1,0.5]];portConstraint=eastwest;" vertex="1" parent="46qobdDRxBcM_sSUUL1y-4">
          <mxGeometry y="34" width="400" height="26" as="geometry" />
        </mxCell>
        <mxCell id="46qobdDRxBcM_sSUUL1y-46" value="+ ~SystemRender3D : Destructor" style="text;align=left;verticalAlign=top;spacingLeft=4;spacingRight=4;overflow=hidden;rotatable=0;points=[[0,0.5],[1,0.5]];portConstraint=eastwest;" vertex="1" parent="46qobdDRxBcM_sSUUL1y-4">
          <mxGeometry y="60" width="400" height="26" as="geometry" />
        </mxCell>
        <mxCell id="46qobdDRxBcM_sSUUL1y-47" value="+ update(positions, render, entities, resourcePool, camera :&#xa;ECS::ComponentManager::SparseArray&lt;ECS::Components::Position&gt;&#xa;ECS::ComponentManager::SparseArray&lt;ECS::Components::Render3D&gt;&#xa;std::vector&lt;std::size_t&gt;, ECS::RessourcePool, raylib::Camera3D) : void&#xa;" style="text;align=left;verticalAlign=top;spacingLeft=4;spacingRight=4;overflow=hidden;rotatable=0;points=[[0,0.5],[1,0.5]];portConstraint=eastwest;" vertex="1" parent="46qobdDRxBcM_sSUUL1y-4">
          <mxGeometry y="86" width="400" height="74" as="geometry" />
        </mxCell>
        <mxCell id="46qobdDRxBcM_sSUUL1y-48" value="SystemRender2D" style="swimlane;fontStyle=2;align=center;verticalAlign=top;childLayout=stackLayout;horizontal=1;startSize=26;horizontalStack=0;resizeParent=1;resizeLast=0;collapsible=1;marginBottom=0;rounded=0;shadow=0;strokeWidth=1;" vertex="1" parent="WIyWlLk6GJQsqaUBKTNV-1">
          <mxGeometry x="2200" y="-910" width="400" height="170" as="geometry">
            <mxRectangle x="230" y="140" width="160" height="26" as="alternateBounds" />
          </mxGeometry>
        </mxCell>
        <mxCell id="46qobdDRxBcM_sSUUL1y-49" value="" style="line;html=1;strokeWidth=1;align=left;verticalAlign=middle;spacingTop=-1;spacingLeft=3;spacingRight=3;rotatable=0;labelPosition=right;points=[];portConstraint=eastwest;" vertex="1" parent="46qobdDRxBcM_sSUUL1y-48">
          <mxGeometry y="26" width="400" height="8" as="geometry" />
        </mxCell>
        <mxCell id="46qobdDRxBcM_sSUUL1y-53" style="edgeStyle=orthogonalEdgeStyle;rounded=0;orthogonalLoop=1;jettySize=auto;html=1;exitX=1;exitY=0.5;exitDx=0;exitDy=0;" edge="1" parent="46qobdDRxBcM_sSUUL1y-48" source="46qobdDRxBcM_sSUUL1y-50">
          <mxGeometry relative="1" as="geometry">
            <mxPoint x="510" y="46.90909090909088" as="targetPoint" />
          </mxGeometry>
        </mxCell>
        <mxCell id="46qobdDRxBcM_sSUUL1y-50" value="+ SystemRender2D : Constructor" style="text;align=left;verticalAlign=top;spacingLeft=4;spacingRight=4;overflow=hidden;rotatable=0;points=[[0,0.5],[1,0.5]];portConstraint=eastwest;" vertex="1" parent="46qobdDRxBcM_sSUUL1y-48">
          <mxGeometry y="34" width="400" height="26" as="geometry" />
        </mxCell>
        <mxCell id="46qobdDRxBcM_sSUUL1y-51" value="+ ~SystemRender2D : Destructor" style="text;align=left;verticalAlign=top;spacingLeft=4;spacingRight=4;overflow=hidden;rotatable=0;points=[[0,0.5],[1,0.5]];portConstraint=eastwest;" vertex="1" parent="46qobdDRxBcM_sSUUL1y-48">
          <mxGeometry y="60" width="400" height="26" as="geometry" />
        </mxCell>
        <mxCell id="46qobdDRxBcM_sSUUL1y-52" value="+ update(positions, render, entities, resourcePool,  :&#xa;ECS::ComponentManager::SparseArray&lt;ECS::Components::Position&gt;&#xa;ECS::ComponentManager::SparseArray&lt;ECS::Components::Render2D&gt;&#xa;std::vector&lt;std::size_t&gt;, ECS::RessourcePool) : void&#xa;" style="text;align=left;verticalAlign=top;spacingLeft=4;spacingRight=4;overflow=hidden;rotatable=0;points=[[0,0.5],[1,0.5]];portConstraint=eastwest;" vertex="1" parent="46qobdDRxBcM_sSUUL1y-48">
          <mxGeometry y="86" width="400" height="74" as="geometry" />
        </mxCell>
        <mxCell id="46qobdDRxBcM_sSUUL1y-54" value="ProjectileCollision" style="swimlane;fontStyle=2;align=center;verticalAlign=top;childLayout=stackLayout;horizontal=1;startSize=26;horizontalStack=0;resizeParent=1;resizeLast=0;collapsible=1;marginBottom=0;rounded=0;shadow=0;strokeWidth=1;" vertex="1" parent="WIyWlLk6GJQsqaUBKTNV-1">
          <mxGeometry x="3050" y="-890" width="400" height="170" as="geometry">
            <mxRectangle x="230" y="140" width="160" height="26" as="alternateBounds" />
          </mxGeometry>
        </mxCell>
        <mxCell id="46qobdDRxBcM_sSUUL1y-55" value="" style="line;html=1;strokeWidth=1;align=left;verticalAlign=middle;spacingTop=-1;spacingLeft=3;spacingRight=3;rotatable=0;labelPosition=right;points=[];portConstraint=eastwest;" vertex="1" parent="46qobdDRxBcM_sSUUL1y-54">
          <mxGeometry y="26" width="400" height="8" as="geometry" />
        </mxCell>
        <mxCell id="46qobdDRxBcM_sSUUL1y-60" style="edgeStyle=orthogonalEdgeStyle;rounded=0;orthogonalLoop=1;jettySize=auto;html=1;" edge="1" parent="46qobdDRxBcM_sSUUL1y-54" source="46qobdDRxBcM_sSUUL1y-57">
          <mxGeometry relative="1" as="geometry">
            <mxPoint x="-90" y="47" as="targetPoint" />
          </mxGeometry>
        </mxCell>
        <mxCell id="46qobdDRxBcM_sSUUL1y-57" value="+ ProjectileCollision : Constructor" style="text;align=left;verticalAlign=top;spacingLeft=4;spacingRight=4;overflow=hidden;rotatable=0;points=[[0,0.5],[1,0.5]];portConstraint=eastwest;" vertex="1" parent="46qobdDRxBcM_sSUUL1y-54">
          <mxGeometry y="34" width="400" height="26" as="geometry" />
        </mxCell>
        <mxCell id="46qobdDRxBcM_sSUUL1y-58" value="+ ~ProjectileCollision : Destructor" style="text;align=left;verticalAlign=top;spacingLeft=4;spacingRight=4;overflow=hidden;rotatable=0;points=[[0,0.5],[1,0.5]];portConstraint=eastwest;" vertex="1" parent="46qobdDRxBcM_sSUUL1y-54">
          <mxGeometry y="60" width="400" height="26" as="geometry" />
        </mxCell>
        <mxCell id="46qobdDRxBcM_sSUUL1y-59" value="+ projectileIsHit(positions, hitboxes, projectileEntities, entities,  :&#xa;ECS::ComponentManager::SparseArray&lt;ECS::Components::Position&gt;&#xa;ECS::ComponentManager::SparseArray&lt;ECS::Components::Hitbox&gt;&#xa;std::vector&lt;std::size_t&gt;, std::vector&lt;std:size_t&gt;) : std::size_t&#xa;" style="text;align=left;verticalAlign=top;spacingLeft=4;spacingRight=4;overflow=hidden;rotatable=0;points=[[0,0.5],[1,0.5]];portConstraint=eastwest;" vertex="1" parent="46qobdDRxBcM_sSUUL1y-54">
          <mxGeometry y="86" width="400" height="74" as="geometry" />
        </mxCell>
        <mxCell id="46qobdDRxBcM_sSUUL1y-61" value="InputUpdates" style="swimlane;fontStyle=2;align=center;verticalAlign=top;childLayout=stackLayout;horizontal=1;startSize=26;horizontalStack=0;resizeParent=1;resizeLast=0;collapsible=1;marginBottom=0;rounded=0;shadow=0;strokeWidth=1;" vertex="1" parent="WIyWlLk6GJQsqaUBKTNV-1">
          <mxGeometry x="3050" y="-680" width="400" height="240" as="geometry">
            <mxRectangle x="230" y="140" width="160" height="26" as="alternateBounds" />
          </mxGeometry>
        </mxCell>
        <mxCell id="46qobdDRxBcM_sSUUL1y-62" value="" style="line;html=1;strokeWidth=1;align=left;verticalAlign=middle;spacingTop=-1;spacingLeft=3;spacingRight=3;rotatable=0;labelPosition=right;points=[];portConstraint=eastwest;" vertex="1" parent="46qobdDRxBcM_sSUUL1y-61">
          <mxGeometry y="26" width="400" height="8" as="geometry" />
        </mxCell>
        <mxCell id="46qobdDRxBcM_sSUUL1y-64" value="+ InputUpdates : Constructor" style="text;align=left;verticalAlign=top;spacingLeft=4;spacingRight=4;overflow=hidden;rotatable=0;points=[[0,0.5],[1,0.5]];portConstraint=eastwest;" vertex="1" parent="46qobdDRxBcM_sSUUL1y-61">
          <mxGeometry y="34" width="400" height="26" as="geometry" />
        </mxCell>
        <mxCell id="46qobdDRxBcM_sSUUL1y-65" value="+ ~InputUpdates : Destructor" style="text;align=left;verticalAlign=top;spacingLeft=4;spacingRight=4;overflow=hidden;rotatable=0;points=[[0,0.5],[1,0.5]];portConstraint=eastwest;" vertex="1" parent="46qobdDRxBcM_sSUUL1y-61">
          <mxGeometry y="60" width="400" height="26" as="geometry" />
        </mxCell>
        <mxCell id="46qobdDRxBcM_sSUUL1y-66" value="+ updateInputs(inputs, inputComponents, entities,  :&#xa;const std::vector&lt;std::size_t&gt; &amp;&#xa;ECS::ComponentManager::SparseArray&lt;ECS::Components::Input&gt; &amp;&#xa;std::vector&lt;std::size_t&gt;) : std::size_t&#xa;" style="text;align=left;verticalAlign=top;spacingLeft=4;spacingRight=4;overflow=hidden;rotatable=0;points=[[0,0.5],[1,0.5]];portConstraint=eastwest;" vertex="1" parent="46qobdDRxBcM_sSUUL1y-61">
          <mxGeometry y="86" width="400" height="74" as="geometry" />
        </mxCell>
        <mxCell id="46qobdDRxBcM_sSUUL1y-68" value="+ updateInputedVelocity(inputs, velocitites, entities,  :&#xa;ECS::ComponentManager::SparseArray&lt;ECS::Components::Input&gt; &amp;&#xa;ECS::ComponentManager::SparseArray&lt;ECS::Components::Velocity&gt; &amp;&#xa;std::vector&lt;std::size_t&gt;) : void&#xa;" style="text;align=left;verticalAlign=top;spacingLeft=4;spacingRight=4;overflow=hidden;rotatable=0;points=[[0,0.5],[1,0.5]];portConstraint=eastwest;" vertex="1" parent="46qobdDRxBcM_sSUUL1y-61">
          <mxGeometry y="160" width="400" height="70" as="geometry" />
        </mxCell>
        <mxCell id="46qobdDRxBcM_sSUUL1y-67" style="edgeStyle=orthogonalEdgeStyle;rounded=0;orthogonalLoop=1;jettySize=auto;html=1;entryX=1;entryY=1;entryDx=0;entryDy=0;" edge="1" parent="WIyWlLk6GJQsqaUBKTNV-1" source="46qobdDRxBcM_sSUUL1y-65" target="poZoN8kQUyQc4HhDRA4U-58">
          <mxGeometry relative="1" as="geometry" />
        </mxCell>
        <mxCell id="46qobdDRxBcM_sSUUL1y-69" value="Collision" style="swimlane;fontStyle=2;align=center;verticalAlign=top;childLayout=stackLayout;horizontal=1;startSize=26;horizontalStack=0;resizeParent=1;resizeLast=0;collapsible=1;marginBottom=0;rounded=0;shadow=0;strokeWidth=1;" vertex="1" parent="WIyWlLk6GJQsqaUBKTNV-1">
          <mxGeometry x="2210" y="-680" width="400" height="240" as="geometry">
            <mxRectangle x="230" y="140" width="160" height="26" as="alternateBounds" />
          </mxGeometry>
        </mxCell>
        <mxCell id="46qobdDRxBcM_sSUUL1y-70" value="" style="line;html=1;strokeWidth=1;align=left;verticalAlign=middle;spacingTop=-1;spacingLeft=3;spacingRight=3;rotatable=0;labelPosition=right;points=[];portConstraint=eastwest;" vertex="1" parent="46qobdDRxBcM_sSUUL1y-69">
          <mxGeometry y="26" width="400" height="8" as="geometry" />
        </mxCell>
        <mxCell id="46qobdDRxBcM_sSUUL1y-71" value="+ Collision : Constructor" style="text;align=left;verticalAlign=top;spacingLeft=4;spacingRight=4;overflow=hidden;rotatable=0;points=[[0,0.5],[1,0.5]];portConstraint=eastwest;" vertex="1" parent="46qobdDRxBcM_sSUUL1y-69">
          <mxGeometry y="34" width="400" height="26" as="geometry" />
        </mxCell>
        <mxCell id="46qobdDRxBcM_sSUUL1y-72" value="+ ~Collision : Destructor" style="text;align=left;verticalAlign=top;spacingLeft=4;spacingRight=4;overflow=hidden;rotatable=0;points=[[0,0.5],[1,0.5]];portConstraint=eastwest;" vertex="1" parent="46qobdDRxBcM_sSUUL1y-69">
          <mxGeometry y="60" width="400" height="26" as="geometry" />
        </mxCell>
        <mxCell id="46qobdDRxBcM_sSUUL1y-73" value="+ isHit(positions, hitboxes, entities,  :&#xa;ECS::ComponentManager::SparseArray&lt;ECS::Components::Position&gt; &amp;&#xa;ECS::ComponentManager::SparseArray&lt;ECS::Components::Hitbox&gt; &amp;&#xa;std::vector&lt;std::size_t&gt;) : void&#xa;" style="text;align=left;verticalAlign=top;spacingLeft=4;spacingRight=4;overflow=hidden;rotatable=0;points=[[0,0.5],[1,0.5]];portConstraint=eastwest;" vertex="1" parent="46qobdDRxBcM_sSUUL1y-69">
          <mxGeometry y="86" width="400" height="74" as="geometry" />
        </mxCell>
        <mxCell id="46qobdDRxBcM_sSUUL1y-74" value="+ projectileIsHit(positions, hitboxes, entities,  :&#xa;ECS::ComponentManager::SparseArray&lt;ECS::Components::Position&gt; &amp;&#xa;ECS::ComponentManager::SparseArray&lt;ECS::Components:: Hitbox &gt; &amp;&#xa;std::vector&lt;std::size_t&gt;) : static void&#xa;" style="text;align=left;verticalAlign=top;spacingLeft=4;spacingRight=4;overflow=hidden;rotatable=0;points=[[0,0.5],[1,0.5]];portConstraint=eastwest;" vertex="1" parent="46qobdDRxBcM_sSUUL1y-69">
          <mxGeometry y="160" width="400" height="70" as="geometry" />
        </mxCell>
        <mxCell id="46qobdDRxBcM_sSUUL1y-75" style="edgeStyle=orthogonalEdgeStyle;rounded=0;orthogonalLoop=1;jettySize=auto;html=1;entryX=0;entryY=1;entryDx=0;entryDy=0;" edge="1" parent="WIyWlLk6GJQsqaUBKTNV-1" source="46qobdDRxBcM_sSUUL1y-73" target="poZoN8kQUyQc4HhDRA4U-58">
          <mxGeometry relative="1" as="geometry" />
        </mxCell>
      </root>
    </mxGraphModel>
  </diagram>
  <diagram id="BlIdPZCB4XIoNYosGY30" name="Game">
    <mxGraphModel dx="1126" dy="2051" grid="1" gridSize="10" guides="1" tooltips="1" connect="1" arrows="1" fold="1" page="1" pageScale="1" pageWidth="850" pageHeight="1100" math="0" shadow="0">
      <root>
        <mxCell id="0" />
        <mxCell id="1" parent="0" />
        <mxCell id="NcTO2DtXniLq87EwxzOc-1" value="Game" style="swimlane;fontStyle=2;align=center;verticalAlign=top;childLayout=stackLayout;horizontal=1;startSize=26;horizontalStack=0;resizeParent=1;resizeLast=0;collapsible=1;marginBottom=0;rounded=0;shadow=0;strokeWidth=1;" vertex="1" parent="1">
          <mxGeometry x="280" y="-790" width="290" height="380" as="geometry">
            <mxRectangle x="230" y="140" width="160" height="26" as="alternateBounds" />
          </mxGeometry>
        </mxCell>
        <mxCell id="NcTO2DtXniLq87EwxzOc-2" value="- _resourcePool : ECS::ResourcePool" style="text;align=left;verticalAlign=top;spacingLeft=4;spacingRight=4;overflow=hidden;rotatable=0;points=[[0,0.5],[1,0.5]];portConstraint=eastwest;" vertex="1" parent="NcTO2DtXniLq87EwxzOc-1">
          <mxGeometry y="26" width="290" height="26" as="geometry" />
        </mxCell>
        <mxCell id="NcTO2DtXniLq87EwxzOc-3" value="- createProjectile(entity : std::size_t) : void" style="text;align=left;verticalAlign=top;spacingLeft=4;spacingRight=4;overflow=hidden;rotatable=0;points=[[0,0.5],[1,0.5]];portConstraint=eastwest;" vertex="1" parent="NcTO2DtXniLq87EwxzOc-1">
          <mxGeometry y="52" width="290" height="26" as="geometry" />
        </mxCell>
        <mxCell id="NcTO2DtXniLq87EwxzOc-4" value="- update(void) : void" style="text;align=left;verticalAlign=top;spacingLeft=4;spacingRight=4;overflow=hidden;rotatable=0;points=[[0,0.5],[1,0.5]];portConstraint=eastwest;" vertex="1" parent="NcTO2DtXniLq87EwxzOc-1">
          <mxGeometry y="78" width="290" height="26" as="geometry" />
        </mxCell>
        <mxCell id="NcTO2DtXniLq87EwxzOc-5" value="- render(void) : void" style="text;align=left;verticalAlign=top;spacingLeft=4;spacingRight=4;overflow=hidden;rotatable=0;points=[[0,0.5],[1,0.5]];portConstraint=eastwest;" vertex="1" parent="NcTO2DtXniLq87EwxzOc-1">
          <mxGeometry y="104" width="290" height="26" as="geometry" />
        </mxCell>
        <mxCell id="NcTO2DtXniLq87EwxzOc-6" value="- _isRunning : bool" style="text;align=left;verticalAlign=top;spacingLeft=4;spacingRight=4;overflow=hidden;rotatable=0;points=[[0,0.5],[1,0.5]];portConstraint=eastwest;" vertex="1" parent="NcTO2DtXniLq87EwxzOc-1">
          <mxGeometry y="130" width="290" height="26" as="geometry" />
        </mxCell>
        <mxCell id="NcTO2DtXniLq87EwxzOc-7" value="- _core : std::unique_ptr&lt;ECS::Core::Core&gt;" style="text;align=left;verticalAlign=top;spacingLeft=4;spacingRight=4;overflow=hidden;rotatable=0;points=[[0,0.5],[1,0.5]];portConstraint=eastwest;" vertex="1" parent="NcTO2DtXniLq87EwxzOc-1">
          <mxGeometry y="156" width="290" height="26" as="geometry" />
        </mxCell>
        <mxCell id="NcTO2DtXniLq87EwxzOc-8" value="- _window : raylib::Window" style="text;align=left;verticalAlign=top;spacingLeft=4;spacingRight=4;overflow=hidden;rotatable=0;points=[[0,0.5],[1,0.5]];portConstraint=eastwest;" vertex="1" parent="NcTO2DtXniLq87EwxzOc-1">
          <mxGeometry y="182" width="290" height="26" as="geometry" />
        </mxCell>
        <mxCell id="NcTO2DtXniLq87EwxzOc-9" value="- _camera : raylib::Camera3D" style="text;align=left;verticalAlign=top;spacingLeft=4;spacingRight=4;overflow=hidden;rotatable=0;points=[[0,0.5],[1,0.5]];portConstraint=eastwest;" vertex="1" parent="NcTO2DtXniLq87EwxzOc-1">
          <mxGeometry y="208" width="290" height="26" as="geometry" />
        </mxCell>
        <mxCell id="NcTO2DtXniLq87EwxzOc-10" value="" style="line;html=1;strokeWidth=1;align=left;verticalAlign=middle;spacingTop=-1;spacingLeft=3;spacingRight=3;rotatable=0;labelPosition=right;points=[];portConstraint=eastwest;" vertex="1" parent="NcTO2DtXniLq87EwxzOc-1">
          <mxGeometry y="234" width="290" height="8" as="geometry" />
        </mxCell>
        <mxCell id="NcTO2DtXniLq87EwxzOc-11" value="+ Game(void) : Constructor" style="text;align=left;verticalAlign=top;spacingLeft=4;spacingRight=4;overflow=hidden;rotatable=0;points=[[0,0.5],[1,0.5]];portConstraint=eastwest;" vertex="1" parent="NcTO2DtXniLq87EwxzOc-1">
          <mxGeometry y="242" width="290" height="28" as="geometry" />
        </mxCell>
        <mxCell id="NcTO2DtXniLq87EwxzOc-12" value="+ ~Game(void) : Destructor" style="text;align=left;verticalAlign=top;spacingLeft=4;spacingRight=4;overflow=hidden;rotatable=0;points=[[0,0.5],[1,0.5]];portConstraint=eastwest;" vertex="1" parent="NcTO2DtXniLq87EwxzOc-1">
          <mxGeometry y="270" width="290" height="26" as="geometry" />
        </mxCell>
        <mxCell id="NcTO2DtXniLq87EwxzOc-13" value="+ Run(void) : void" style="text;align=left;verticalAlign=top;spacingLeft=4;spacingRight=4;overflow=hidden;rotatable=0;points=[[0,0.5],[1,0.5]];portConstraint=eastwest;" vertex="1" parent="NcTO2DtXniLq87EwxzOc-1">
          <mxGeometry y="296" width="290" height="26" as="geometry" />
        </mxCell>
      </root>
    </mxGraphModel>
  </diagram>
</mxfile>
